<?xml version="1.0" encoding="UTF-8"?>
<svg version="1.1" xmlns="http://www.w3.org/2000/svg" width="1472" height="832">
<path d="M0 0 C485.76 0 971.52 0 1472 0 C1472 274.56 1472 549.12 1472 832 C986.24 832 500.48 832 0 832 C0 557.44 0 282.88 0 0 Z " fill="#99C0C2" transform="translate(0,0)"/>
<path d="M0 0 C1.40185547 0.55300781 1.40185547 0.55300781 2.83203125 1.1171875 C5.98640626 2.43193508 8.58161 3.66296361 11.25 5.8125 C12.95782583 7.21056303 12.95782583 7.21056303 15.25 7 C17.7065113 6.10672316 19.39878525 5.16559805 21.5625 3.75 C37.08747898 -6.4032182 56.07901415 -7.31140812 73.99755859 -4.0246582 C89.20193719 -0.62173923 102.51284672 8.78054658 112 21 C112.74056641 21.94939453 112.74056641 21.94939453 113.49609375 22.91796875 C124.95479359 38.78157138 128.10894317 58.19268637 125.71142578 77.29980469 C122.19471813 97.89024597 109.97270054 114.11718225 94 127 C93.34 127 92.68 127 92 127 C91.7525 127.61875 91.505 128.2375 91.25 128.875 C89.79371361 131.35068687 88.62187494 131.95125002 86 133 C86 133.66 86 134.32 86 135 C84.53125 136.4453125 84.53125 136.4453125 82.5 138.125 C79.53322639 140.64257902 76.72425751 143.22168976 74 146 C70.82916924 149.22027841 67.52237422 152.1886571 64.08984375 155.125 C60.86311109 158.02001248 57.88111273 161.14845554 54.8828125 164.27734375 C53 166 53 166 51 166 C51 166.66 51 167.32 51 168 C49.671875 169.33984375 49.671875 169.33984375 47.75 170.9375 C44.08235845 174.05792683 40.48696082 177.24614272 36.9375 180.5 C36.41800781 180.97590576 35.89851562 181.45181152 35.36328125 181.94213867 C32.59814966 184.48839325 29.88663925 187.07112625 27.25 189.75 C24.82092114 192.20283513 22.35420715 194.60099489 19.8125 196.9375 C19.17957031 197.52402344 18.54664063 198.11054688 17.89453125 198.71484375 C16 200 16 200 12 200 C9.921875 198.27734375 9.921875 198.27734375 7.75 195.9375 C3.68836849 191.69004221 -0.53928251 187.81864452 -5 184 C-6.67182371 182.56850095 -8.33847993 181.13094556 -10 179.6875 C-11.1446875 178.70330078 -11.1446875 178.70330078 -12.3125 177.69921875 C-14 176 -14 176 -14 174 C-15.98 173.01 -15.98 173.01 -18 172 C-18 171.34 -18 170.68 -18 170 C-18.57234375 169.75636719 -19.1446875 169.51273438 -19.734375 169.26171875 C-22.40433538 167.77482702 -24.13829007 166.01916092 -26.25 163.8125 C-29.61802724 160.30311395 -33.14807074 157.09385661 -36.81933594 153.91137695 C-40.61860904 150.5812707 -44.30999262 147.13768887 -48 143.6875 C-49.16208984 142.61532227 -49.16208984 142.61532227 -50.34765625 141.52148438 C-51.07855469 140.83763672 -51.80945313 140.15378906 -52.5625 139.44921875 C-53.22378906 138.83393311 -53.88507812 138.21864746 -54.56640625 137.5847168 C-56 136 -56 136 -56 134 C-56.56460938 133.75378906 -57.12921875 133.50757813 -57.7109375 133.25390625 C-60.39895928 131.78145746 -62.37317156 130.01695721 -64.625 127.9375 C-67.23980312 125.52619845 -69.84673205 123.13010226 -72.55859375 120.828125 C-79.0927613 115.2419724 -84.10803814 109.05241972 -89 102 C-89.7115625 100.98035156 -90.423125 99.96070313 -91.15625 98.91015625 C-92.7290487 96.42766678 -93.76697682 94.40582212 -94.625 91.625 C-94.84414063 90.93664062 -95.06328125 90.24828125 -95.2890625 89.5390625 C-95.64097656 88.28222656 -95.64097656 88.28222656 -96 87 C-96.350625 85.85660156 -96.70125 84.71320313 -97.0625 83.53515625 C-100.37353128 70.04576956 -100.12454707 51.61623319 -94 39 C-93.72043457 38.39220703 -93.44086914 37.78441406 -93.15283203 37.15820312 C-84.44065546 18.55393316 -69.9397829 5.79630264 -51.01953125 -1.95703125 C-34.38878333 -7.70141637 -16.15699372 -6.69224592 0 0 Z " fill="#649F71" transform="translate(730,183)"/>
<path d="M0 0 C1.40185547 0.55300781 1.40185547 0.55300781 2.83203125 1.1171875 C5.98640626 2.43193508 8.58161 3.66296361 11.25 5.8125 C12.95782583 7.21056303 12.95782583 7.21056303 15.25 7 C17.7065113 6.10672316 19.39878525 5.16559805 21.5625 3.75 C37.08747898 -6.4032182 56.07901415 -7.31140812 73.99755859 -4.0246582 C89.20193719 -0.62173923 102.51284672 8.78054658 112 21 C112.74056641 21.94939453 112.74056641 21.94939453 113.49609375 22.91796875 C124.95479359 38.78157138 128.10894317 58.19268637 125.71142578 77.29980469 C122.19471813 97.89024597 109.97270054 114.11718225 94 127 C93.34 127 92.68 127 92 127 C91.7525 127.61875 91.505 128.2375 91.25 128.875 C89.79371361 131.35068687 88.62187494 131.95125002 86 133 C86 133.66 86 134.32 86 135 C84.53125 136.4453125 84.53125 136.4453125 82.5 138.125 C79.53322639 140.64257902 76.72425751 143.22168976 74 146 C70.82916924 149.22027841 67.52237422 152.1886571 64.08984375 155.125 C60.86311109 158.02001248 57.88111273 161.14845554 54.8828125 164.27734375 C53 166 53 166 51 166 C51 166.66 51 167.32 51 168 C49.671875 169.33984375 49.671875 169.33984375 47.75 170.9375 C44.08235845 174.05792683 40.48696082 177.24614272 36.9375 180.5 C36.41800781 180.97590576 35.89851562 181.45181152 35.36328125 181.94213867 C32.59814966 184.48839325 29.88663925 187.07112625 27.25 189.75 C24.82092114 192.20283513 22.35420715 194.60099489 19.8125 196.9375 C19.17957031 197.52402344 18.54664063 198.11054688 17.89453125 198.71484375 C16 200 16 200 12 200 C9.921875 198.27734375 9.921875 198.27734375 7.75 195.9375 C3.68836849 191.69004221 -0.53928251 187.81864452 -5 184 C-6.67182371 182.56850095 -8.33847993 181.13094556 -10 179.6875 C-11.1446875 178.70330078 -11.1446875 178.70330078 -12.3125 177.69921875 C-14 176 -14 176 -14 174 C-15.98 173.01 -15.98 173.01 -18 172 C-18 171.34 -18 170.68 -18 170 C-18.57234375 169.75636719 -19.1446875 169.51273438 -19.734375 169.26171875 C-22.40433538 167.77482702 -24.13829007 166.01916092 -26.25 163.8125 C-29.61802724 160.30311395 -33.14807074 157.09385661 -36.81933594 153.91137695 C-40.61860904 150.5812707 -44.30999262 147.13768887 -48 143.6875 C-49.16208984 142.61532227 -49.16208984 142.61532227 -50.34765625 141.52148438 C-51.07855469 140.83763672 -51.80945313 140.15378906 -52.5625 139.44921875 C-53.22378906 138.83393311 -53.88507812 138.21864746 -54.56640625 137.5847168 C-56 136 -56 136 -56 134 C-56.56460938 133.75378906 -57.12921875 133.50757813 -57.7109375 133.25390625 C-60.39895928 131.78145746 -62.37317156 130.01695721 -64.625 127.9375 C-67.23980312 125.52619845 -69.84673205 123.13010226 -72.55859375 120.828125 C-79.0927613 115.2419724 -84.10803814 109.05241972 -89 102 C-89.7115625 100.98035156 -90.423125 99.96070313 -91.15625 98.91015625 C-92.7290487 96.42766678 -93.76697682 94.40582212 -94.625 91.625 C-94.84414063 90.93664062 -95.06328125 90.24828125 -95.2890625 89.5390625 C-95.64097656 88.28222656 -95.64097656 88.28222656 -96 87 C-96.350625 85.85660156 -96.70125 84.71320313 -97.0625 83.53515625 C-100.37353128 70.04576956 -100.12454707 51.61623319 -94 39 C-93.72043457 38.39220703 -93.44086914 37.78441406 -93.15283203 37.15820312 C-84.44065546 18.55393316 -69.9397829 5.79630264 -51.01953125 -1.95703125 C-34.38878333 -7.70141637 -16.15699372 -6.69224592 0 0 Z M-48 23 C-48.85851562 23.43570313 -49.71703125 23.87140625 -50.6015625 24.3203125 C-61.72215049 30.46855299 -69.55307803 39.64423026 -73.875 51.625 C-77.45028699 65.05877063 -75.48503381 80.72391195 -69.0234375 92.890625 C-65.09564208 98.92638784 -60.06407081 103.91640192 -55 109 C-54.1028125 109.92296875 -53.205625 110.8459375 -52.28125 111.796875 C-48.07543057 116.08057998 -43.75755611 120.12613628 -39.1953125 124.0234375 C-35.80487047 127.07604189 -32.63620392 130.34342628 -29.43115234 133.58837891 C-26.03443743 137.01093254 -22.53238517 140.23276303 -18.859375 143.359375 C-16.81699172 145.16147789 -14.91098289 147.05938947 -13 149 C-9.88055654 152.16176149 -6.65239658 155.11044579 -3.28125 158 C-1.48069068 159.57857255 0.2809272 161.17944448 2.03125 162.8125 C2.82837402 163.55439575 2.82837402 163.55439575 3.64160156 164.3112793 C4.69387884 165.2934367 5.74285414 166.27914681 6.78808594 167.26879883 C9.3693345 169.67219203 11.72201209 171.64978117 15 173 C16.1725131 172.04882866 17.33787015 171.08882991 18.5 170.125 C19.1496875 169.59132813 19.799375 169.05765625 20.46875 168.5078125 C20.9740625 168.01023437 21.479375 167.51265625 22 167 C22 166.34 22 165.68 22 165 C22.56589844 164.7628125 23.13179687 164.525625 23.71484375 164.28125 C26.50114746 162.71901476 28.35332514 160.80262557 30.5625 158.5 C32.9961985 155.97190847 35.07009401 153.95327066 38 152 C38 151.34 38 150.68 38 150 C39.32 149.34 40.64 148.68 42 148 C42 147.34 42 146.68 42 146 C42.53109375 145.79761719 43.0621875 145.59523438 43.609375 145.38671875 C47.04224525 143.39542963 49.50874912 140.65520501 52.25 137.8125 C57.6184194 132.34288867 63.12128502 127.19511004 69.0390625 122.3203125 C69.68617188 121.78148437 70.33328125 121.24265625 71 120.6875 C71.5775 120.21699219 72.155 119.74648438 72.75 119.26171875 C74.23460001 118.05921273 74.23460001 118.05921273 74 116 C74.55945313 115.76539063 75.11890625 115.53078125 75.6953125 115.2890625 C88.51962586 108.11614147 97.65617616 92.1498857 101.875 78.5625 C104.94632421 65.83844255 103.11154879 53.24376112 96.875 41.8125 C91.34042948 32.92928177 84.58148821 26.29398856 75 22 C74.33871094 21.68160156 73.67742187 21.36320312 72.99609375 21.03515625 C63.46763292 17.11167238 49.64756684 17.66168631 40 21 C30.4591015 25.26614461 22.14126314 31.3980102 15 39 C14.071875 38.175 13.14375 37.35 12.1875 36.5 C-1.68003497 24.76380274 -14.20677571 17.6120164 -32.60546875 18.546875 C-38.22326298 19.02030478 -42.99643452 20.39296427 -48 23 Z " fill="#08264D" transform="translate(730,183)"/>
<path d="M0 0 C12.19519115 10.33663383 18.75095827 23.3171595 20.203125 39.22265625 C20.83660034 54.26401255 15.84502981 67.58505513 5.80859375 78.9140625 C-4.26673625 89.47916548 -15.92666614 96.30625377 -30.73828125 96.7890625 C-48.3987632 97.05747447 -48.3987632 97.05747447 -56.12890625 93.5859375 C-56.94101562 93.25722656 -57.753125 92.92851563 -58.58984375 92.58984375 C-65.56663326 89.4878558 -70.75090222 84.93583349 -76.12890625 79.5859375 C-76.68320312 79.06644531 -77.2375 78.54695312 -77.80859375 78.01171875 C-87.87615571 67.6448509 -91.41205095 53.96057079 -91.44799805 40.03173828 C-91.21102145 23.98154281 -84.31913961 11.68429702 -73.12890625 0.5859375 C-68.89469444 -3.26654925 -64.83284671 -5.81966104 -59.62890625 -8.1640625 C-58.67177734 -8.61845703 -58.67177734 -8.61845703 -57.6953125 -9.08203125 C-39.18456129 -17.59924806 -15.46473585 -12.25977047 0 0 Z " fill="#08264D" transform="translate(566.12890625,436.4140625)"/>
<path d="M0 0 C12.66978894 9.75695965 23.23014572 21.30121235 25.4296875 37.87109375 C27.08661648 53.88807391 23.62548243 68.09503622 13.4296875 80.87109375 C12.67042969 81.845625 11.91117188 82.82015625 11.12890625 83.82421875 C3.06546126 93.41374926 -9.29882576 99.2871986 -21.5703125 100.87109375 C-24.53007202 101.02954445 -27.48175076 101.05611999 -30.4453125 101.05859375 C-31.20972656 101.07083984 -31.97414063 101.08308594 -32.76171875 101.09570312 C-47.16324856 101.13237935 -58.85962034 94.63982367 -69.328125 85.140625 C-78.83089905 75.52196346 -84.72065685 62.9492712 -84.90014648 49.37744141 C-84.76778217 32.14770848 -80.24570745 18.95303555 -68.140625 6.19140625 C-49.92711276 -10.25057896 -20.91136309 -14.1169303 0 0 Z " fill="#08254B" transform="translate(823.5703125,432.12890625)"/>
<path d="M0 0 C0.91506821 -0.00807175 1.83013641 -0.01614349 2.77293396 -0.02445984 C4.7241729 -0.0383354 6.67543647 -0.0490419 8.62670898 -0.05688477 C11.55698197 -0.07384762 14.48605064 -0.11766706 17.41601562 -0.16210938 C37.84154853 -0.33277901 54.4877137 3.32914785 69.8046875 17.859375 C79.81381412 28.42360049 83.76502547 39.14129043 83.66552734 53.5402832 C83.08175598 68.34068564 76.97135542 79.97372043 66.125 90.03125 C52.87943775 100.74335752 37.16062522 104.43891596 20.52734375 104.3359375 C19.21256042 104.33381508 19.21256042 104.33381508 17.87121582 104.33164978 C15.10030554 104.32609893 12.32947918 104.31355586 9.55859375 104.30078125 C7.66796993 104.29575989 5.77734482 104.2911981 3.88671875 104.28710938 C-0.72268808 104.27614565 -5.33203298 104.2589155 -9.94140625 104.23828125 C-9.96452695 90.82602332 -9.98231994 77.41377008 -9.99321842 64.00149632 C-9.99844785 57.77434653 -10.00554658 51.54721033 -10.0168457 45.32006836 C-10.02767246 39.3160126 -10.03368263 33.31196996 -10.03628349 27.3079052 C-10.03813813 25.01166515 -10.04175946 22.71542586 -10.04713631 20.41919136 C-10.05434393 17.21507311 -10.05539731 14.01100975 -10.05493164 10.80688477 C-10.05852692 9.84735397 -10.06212219 8.88782318 -10.06582642 7.8992157 C-10.06445175 7.03118317 -10.06307709 6.16315063 -10.06166077 5.26881409 C-10.06258256 4.51017846 -10.06350435 3.75154284 -10.06445408 2.96991825 C-9.73395129 -1.68120695 -3.51910139 0.02936605 0 0 Z " fill="#092950" transform="translate(365.94140625,426.76171875)"/>
<path d="M0 0 C4.58908193 3.02495754 8.80121476 6.45617847 13 10 C14.66356655 11.33719927 16.32916181 12.67189785 18 14 C18.61746094 13.41992188 19.23492188 12.83984375 19.87109375 12.2421875 C33.82444524 -0.62802711 45.64677865 -6.64738897 64.921875 -6.2734375 C75.02235601 -5.79717766 82.64200614 -1.69037665 90 5 C90.62648438 5.53496094 91.25296875 6.06992188 91.8984375 6.62109375 C100.95913206 14.8706781 105.11540354 26.1758773 106.31640625 38.15625 C106.91008742 53.93667843 100.86893724 67.69718647 90.41992188 79.26733398 C87.98823606 81.88848742 85.50883532 84.45224058 83 87 C82.26136719 87.78375 81.52273438 88.5675 80.76171875 89.375 C79 91 79 91 77 91 C77 91.66 77 92.32 77 93 C75.53564453 94.46069336 75.53564453 94.46069336 73.5078125 96.15234375 C69.17670131 99.83598147 65.01466763 103.66610764 60.875 107.5625 C59.85986328 108.51286133 59.85986328 108.51286133 58.82421875 109.48242188 C55.69541014 112.42059708 52.61734562 115.37986091 49.6328125 118.46484375 C47 121 47 121 45 121 C44.34 122.32 43.68 123.64 43 125 C42.34 125 41.68 125 41 125 C40.67 125.99 40.34 126.98 40 128 C38.328125 129.6484375 38.328125 129.6484375 36.25 131.375 C33.75883654 133.47775626 31.37231472 135.575801 29.125 137.9375 C27 140 27 140 25 140 C25 140.66 25 141.32 25 142 C23.46875 143.5078125 23.46875 143.5078125 21.5 145.125 C20.8503125 145.66382813 20.200625 146.20265625 19.53125 146.7578125 C19.0259375 147.16773438 18.520625 147.57765625 18 148 C14.74792908 146.58261511 12.68638933 144.87473588 10.25 142.3125 C7.6624283 139.65833638 5.05699071 137.10852948 2.25 134.6875 C-11.68321316 122.66774551 -25.19883264 109.96702487 -38.109375 96.859375 C-39.94996653 95.04920647 -41.8494788 93.36324981 -43.8125 91.6875 C-52.24843894 84.40114793 -60.46709018 76.77480735 -66 67 C-66.38671875 66.35804688 -66.7734375 65.71609375 -67.171875 65.0546875 C-73.22666509 54.21749074 -74.014942 38.61733689 -70.9375 26.6875 C-66.04183265 13.07571462 -56.77885405 4.04150213 -44.24609375 -2.5546875 C-30.04382066 -8.8782026 -13.35729949 -7.93135985 0 0 Z M-35 18 C-35 18.66 -35 19.32 -35 20 C-36.98 20.66 -38.96 21.32 -41 22 C-41 22.66 -41 23.32 -41 24 C-41.60714844 24.25265625 -42.21429687 24.5053125 -42.83984375 24.765625 C-45.30304384 26.17316791 -46.1385803 27.32510704 -47.5625 29.75 C-48.15224609 30.73226562 -48.15224609 30.73226562 -48.75390625 31.734375 C-49.16511719 32.48203125 -49.57632813 33.2296875 -50 34 C-50.53753906 34.91523438 -51.07507813 35.83046875 -51.62890625 36.7734375 C-53.23664559 40.55689248 -53.45532705 43.83569684 -53.375 47.875 C-53.36919922 48.57882812 -53.36339844 49.28265625 -53.35742188 50.0078125 C-53.22498119 55.30543979 -52.35429949 59.29140101 -50 64 C-49.34 64 -48.68 64 -48 64 C-47.731875 64.721875 -47.46375 65.44375 -47.1875 66.1875 C-44.12169412 73.44861918 -39.33918095 78.3741112 -33 83 C-32.34 83 -31.68 83 -31 83 C-30.74863281 83.58910156 -30.49726562 84.17820312 -30.23828125 84.78515625 C-28.84544599 87.27644202 -27.3791428 88.62300414 -25.1875 90.4375 C-22.73890397 92.500176 -20.39352891 94.55463423 -18.1875 96.875 C-16.10416336 99.20650404 -16.10416336 99.20650404 -13 100 C-13 100.66 -13 101.32 -13 102 C-12.01 102.495 -12.01 102.495 -11 103 C-9.875 105.0625 -9.875 105.0625 -9 107 C-8.34 107 -7.68 107 -7 107 C-7 107.66 -7 108.32 -7 109 C-5.57469482 109.91626761 -4.1480933 110.83058469 -2.71484375 111.734375 C-0.21122887 113.58214544 1.59344081 115.864069 3.5546875 118.26171875 C5.55262134 120.66463918 7.76177741 122.82226991 10 125 C10.495 125.556875 10.99 126.11375 11.5 126.6875 C13.47092441 128.41205886 15.54765165 129.13836409 18 130 C24.24717123 124.75553492 24.24717123 124.75553492 30 119 C30 118.34 30 117.68 30 117 C30.57234375 116.7525 31.1446875 116.505 31.734375 116.25 C34.35010611 114.80683801 36.14773456 113.11783778 38.25 111 C38.95640625 110.29875 39.6628125 109.5975 40.390625 108.875 C42.21710399 107.15889232 42.21710399 107.15889232 42 105 C42.66 105 43.32 105 44 105 C45.72985543 103.37659721 47.35908453 101.71140825 49 100 C50.4868223 98.50766074 51.97670251 97.0183651 53.46875 95.53125 C54.28730469 94.71269531 55.10585938 93.89414062 55.94921875 93.05078125 C58.4765625 90.5234375 61.00390625 87.99609375 63.53125 85.46875 C64.31371094 84.6859668 65.09617187 83.90318359 65.90234375 83.09667969 C67.12235535 81.87723606 68.34325189 80.65867409 69.56640625 79.44238281 C73.57989704 75.45037095 77.39584657 71.36712946 81 67 C81.53625 66.37996094 82.0725 65.75992188 82.625 65.12109375 C88.01159682 57.54619198 87.11185091 46.84009402 86 38 C83.64301654 29.29382185 75.6852942 23.04505223 68.1875 18.5625 C60.02184678 14.55972882 48.91240466 14.66286216 40.1328125 16.6484375 C30.99962476 20.45122385 23.71167974 27.95913706 17 35 C16.360625 34.34 15.72125 33.68 15.0625 33 C4.7093449 22.73409059 -4.21105271 14.97126663 -19.3125 14.75 C-25.1722625 14.77687964 -29.59296908 15.8005298 -35 18 Z " fill="#9FC5CC" transform="translate(727,208)"/>
<path d="M0 0 C8.37375 -0.0825 16.7475 -0.165 25.375 -0.25 C29.31058838 -0.30462402 29.31058838 -0.30462402 33.32568359 -0.36035156 C35.43325994 -0.37204715 37.5408454 -0.38223691 39.6484375 -0.390625 C40.72005127 -0.41108887 41.79166504 -0.43155273 42.89575195 -0.45263672 C50.93303841 -0.45632101 56.87254592 1.43627296 64 5 C64 5.66 64 6.32 64 7 C64.556875 7.226875 65.11375 7.45375 65.6875 7.6875 C73.40840806 12.06963701 76.61284863 19.83879872 79 28 C80.17016899 37.37366945 78.68733087 45.77643058 74 54 C66.51935676 63.16021441 66.51935676 63.16021441 61 65 C62.74906826 74.37155091 71.0564049 83.00940355 76.5703125 90.640625 C76.96379883 91.18654297 77.35728516 91.73246094 77.76269531 92.29492188 C78.64042565 93.50448554 79.52601583 94.70836316 80.41699219 95.90820312 C84 100.78472467 84 100.78472467 84 103 C74.76 103 65.52 103 56 103 C54.35 100.03 52.7 97.06 51 94 C49.22271282 91.45436597 47.43935472 88.96715581 45.5625 86.5 C42.38894924 82.31658755 39.52860707 78.23989221 37 73.625 C36.01 72.42875 35.02 71.2325 34 70 C30.37 69.67 26.74 69.34 23 69 C23 80.22 23 91.44 23 103 C15.41 103 7.82 103 0 103 C0 69.01 0 35.02 0 0 Z " fill="#09264C" transform="translate(880,428)"/>
<path d="M0 0 C3.14431349 1.57215674 4.75985681 2.49837975 7.171875 4.79296875 C7.75453125 5.34146484 8.3371875 5.88996094 8.9375 6.45507812 C9.8346875 7.31262695 9.8346875 7.31262695 10.75 8.1875 C14.43148156 11.6775771 18.12369444 15.13333963 21.95703125 18.45703125 C26.06326315 22.02307391 29.99977 25.75010121 33.9375 29.5 C38.86577837 34.16409023 43.80586123 38.61583677 49.26171875 42.6640625 C51.72514281 44.55730077 53.80485197 46.80485197 56 49 C58.97 51.31 61.94 53.62 65 56 C65.33 38.18 65.66 20.36 66 2 C73.59 2 81.18 2 89 2 C89 36.98 89 71.96 89 108 C85.12921308 106.06460654 82.82235031 104.17645149 79.6875 101.25 C76.45390175 98.25046919 73.21548231 95.30572419 69.8125 92.5 C68.884375 91.675 67.95625 90.85 67 90 C67 89.34 67 88.68 67 88 C66.4534375 87.77183594 65.906875 87.54367187 65.34375 87.30859375 C62.29863722 85.60840578 60.04540081 83.44710264 57.5 81.0625 C56.42839893 80.06639171 55.35678395 79.07029838 54.28515625 78.07421875 C53.18997819 77.0496138 52.09492469 76.0248757 51 75 C44.35858655 68.80594648 37.6520369 62.76601133 30.5703125 57.0703125 C27.6861209 54.74717945 24.84506562 52.37088802 22 50 C22 68.15 22 86.3 22 105 C14.74 105 7.48 105 0 105 C0 70.35 0 35.7 0 0 Z " fill="#08264C" transform="translate(617,425)"/>
<path d="M0 0 C0.76441406 -0.01611328 1.52882813 -0.03222656 2.31640625 -0.04882812 C12.20476431 -0.05722232 18.86530209 3.81625025 26.125 10.3125 C31.74372504 15.94516729 34.48627477 21.52486715 34.69555664 29.44384766 C34.66742267 38.58824109 34.43086096 45.17014728 28.125 52.3125 C27.39023437 53.18261719 26.65546875 54.05273438 25.8984375 54.94921875 C22.1457095 59.2479122 18.17016179 63.29028949 14.125 67.3125 C12.78090615 68.65590607 11.43719095 69.99969102 10.09375 71.34375 C1.15625 80.28125 1.15625 80.28125 -0.95703125 82.38671875 C-2.13179158 83.56626425 -3.29805259 84.75444824 -4.44921875 85.95703125 C-5.55652855 87.10980244 -6.71050451 88.21752663 -7.875 89.3125 C-8.535 89.3125 -9.195 89.3125 -9.875 89.3125 C-10.1225 89.88484375 -10.37 90.4571875 -10.625 91.046875 C-12.06816199 93.66260611 -13.75716222 95.46023456 -15.875 97.5625 C-16.57625 98.26890625 -17.2775 98.9753125 -18 99.703125 C-19.875 101.3125 -19.875 101.3125 -21.875 101.3125 C-22.060625 101.93125 -22.24625 102.55 -22.4375 103.1875 C-24.58937233 106.36852866 -27.25033763 106.50701947 -30.875 107.3125 C-32.66737442 104.62393836 -33.85946183 102.3591145 -34.875 99.3125 C-34.38 98.3225 -34.38 98.3225 -33.875 97.3125 C-34.205 97.3125 -34.535 97.3125 -34.875 97.3125 C-34.86339844 96.04148437 -34.85179687 94.77046875 -34.83984375 93.4609375 C-34.75715381 79.37057109 -34.95932786 65.28991336 -35.24832153 51.20294189 C-35.29106997 49.11113462 -35.33231204 47.01929602 -35.37203979 44.9274292 C-35.42945001 41.94628916 -35.49308276 38.96534679 -35.55859375 35.984375 C-35.57531128 35.08318939 -35.59202881 34.18200378 -35.60925293 33.25350952 C-35.70633321 29.16069317 -35.86348492 25.30507908 -36.875 21.3125 C-36.215 21.3125 -35.555 21.3125 -34.875 21.3125 C-34.62878906 20.74273437 -34.38257813 20.17296875 -34.12890625 19.5859375 C-29.6548879 11.47416591 -20.60611882 4.72039453 -12.16015625 1.171875 C-8.03528697 0.09283666 -4.24447887 -0.01771485 0 0 Z " fill="#2D896F" transform="translate(778.875,223.6875)"/>
<path d="M0 0 C7.59 0 15.18 0 23 0 C23.11352364 9.42385943 23.20501437 18.84725551 23.25906086 28.27164745 C23.28501681 32.64905138 23.32015403 37.02595822 23.37719727 41.40307617 C23.43202306 45.63714202 23.46152546 49.87073357 23.47438622 54.10512733 C23.48353639 55.71049771 23.50140141 57.31584579 23.52865028 58.92101097 C23.73637811 71.67968885 22.17542877 82.23371809 13.8125 92.5 C6.94568356 99.5382012 -1.83156367 103.49146724 -11.6484375 104.30078125 C-24.57473541 104.34142999 -33.9614181 101.96819608 -43.34375 92.6796875 C-49 86.48569542 -49 86.48569542 -49 84 C-49.66 84 -50.32 84 -51 84 C-53 81 -53 81 -52.87280273 78.98730469 C-51.72842679 76.38164869 -50.46580922 75.65561107 -48.03515625 74.203125 C-47.23529297 73.71972656 -46.43542969 73.23632812 -45.61132812 72.73828125 C-44.3496582 72.00158203 -44.3496582 72.00158203 -43.0625 71.25 C-42.22525391 70.74339844 -41.38800781 70.23679687 -40.52539062 69.71484375 C-34.30227636 66 -34.30227636 66 -32 66 C-31.67 67.32 -31.34 68.64 -31 70 C-30.34 70 -29.68 70 -29 70 C-28.401875 70.9075 -27.80375 71.815 -27.1875 72.75 C-24.90023226 76.14822635 -23.58094004 78.01905444 -20 80 C-14.3598516 80.68056089 -9.12181906 80.66836028 -4 78 C-2.68314723 75.0497509 -2.68314723 75.0497509 -2 72 C-1.67 71.34 -1.34 70.68 -1 70 C-0.87904959 67.78463271 -0.82250828 65.56565996 -0.79467773 63.34716797 C-0.78477814 62.66412598 -0.77487854 61.98108398 -0.76467896 61.27734375 C-0.73304691 59.01566047 -0.70829989 56.75395618 -0.68359375 54.4921875 C-0.66302569 52.92562305 -0.64202925 51.35906417 -0.62062073 49.79251099 C-0.56538478 45.66616318 -0.51598225 41.53976517 -0.46777344 37.41333008 C-0.41756952 33.20389326 -0.36187767 28.9945295 -0.30664062 24.78515625 C-0.1990404 16.52349755 -0.09810663 8.2617769 0 0 Z " fill="#08234A" transform="translate(1044,428)"/>
<path d="M0 0 C5.9380312 4.3471568 10.52831432 10.56026312 11.8125 17.9375 C12.66704748 28.93454542 11.67627108 38.45675224 4.6875 47.3125 C-1.12825759 53.44296309 -9.24150384 57.00146617 -17.6328125 57.23046875 C-27.54040948 57.32186725 -34.96863249 56.25039912 -42.5 49.25 C-50.17427194 40.9232596 -52.51575975 33.0977122 -52.40625 21.94140625 C-51.74009141 12.79362134 -46.47885964 5.71584244 -40.05078125 -0.51953125 C-28.68016623 -9.93544935 -11.55897394 -7.30403122 0 0 Z " fill="#9EC3CB" transform="translate(550.1875,453.0625)"/>
<path d="M0 0 C6.8158568 5.44992599 10.99823506 12.87717295 12.19140625 21.50390625 C12.56840606 31.99909463 9.67130983 39.52869257 2.85546875 47.5390625 C-4.00865463 54.1096083 -11.41614746 56.52121307 -20.8125 56.8125 C-30.81769609 56.49072485 -36.95953578 53.38429621 -44.234375 46.60546875 C-50.7735449 39.16652935 -52.75421477 30.75802968 -52.64453125 21.0859375 C-51.62802332 11.36369338 -46.27920533 4.18749454 -38.8828125 -1.90625 C-26.67066855 -10.16847202 -11.68533258 -7.9451409 0 0 Z " fill="#99BFC4" transform="translate(814.25,453.6875)"/>
<path d="M0 0 C7.59 0 15.18 0 23 0 C23 33.66 23 67.32 23 102 C15.41 102 7.82 102 0 102 C0 68.34 0 34.68 0 0 Z " fill="#072348" transform="translate(1101,428)"/>
<path d="M0 0 C28.22222222 0 28.22222222 0 38 8 C44.50960153 15.29200556 46.56723583 21.91456673 46.3671875 31.68359375 C45.42089386 40.23043735 40.89931174 45.96319051 34.3984375 51.30859375 C23.61640682 58.91220822 13.34292059 58 0 58 C0 38.86 0 19.72 0 0 Z " fill="#A1C6CF" transform="translate(380,450)"/>
<path d="M0 0 C7.92 0 15.84 0 24 0 C24 16.17 24 32.34 24 49 C16.08 49 8.16 49 0 49 C0 32.83 0 16.66 0 0 Z " fill="#FFFFFF" transform="translate(952,557)"/>
<path d="M0 0 C3.650625 -0.103125 7.30125 -0.20625 11.0625 -0.3125 C12.76805054 -0.38078003 12.76805054 -0.38078003 14.50805664 -0.45043945 C21.37803506 -0.54405235 24.96214027 0.22189423 30 5 C32.75306155 8.96988433 32.67126518 13.33349388 32 18 C29.9949912 21.8026029 28.57313738 23.61790841 25 26 C22.36450195 26.22705078 22.36450195 26.22705078 19.23828125 26.1953125 C17.72681519 26.18781982 17.72681519 26.18781982 16.18481445 26.18017578 C14.2680188 26.15286377 14.2680188 26.15286377 12.3125 26.125 C8.249375 26.08375 4.18625 26.0425 0 26 C0 17.42 0 8.84 0 0 Z " fill="#96BDC2" transform="translate(903,449)"/>
<path d="M0 0 C7.92 0 15.84 0 24 0 C24 0.33 24 0.66 24 1 C16.41 1 8.82 1 1 1 C1 34.66 1 68.32 1 103 C8.59 103 16.18 103 24 103 C23.34 104.32 22.68 105.64 22 107 C21.28714844 106.98839844 20.57429688 106.97679687 19.83984375 106.96484375 C10.68119352 106.60893364 10.68119352 106.60893364 2 109 C1.67 108.34 1.34 107.68 1 107 C0.01 106.67 -0.98 106.34 -2 106 C-3.19536461 101.31367437 -3.12759836 96.77970671 -3.09765625 91.98046875 C-3.0962413 91.12189774 -3.09482635 90.26332672 -3.09336853 89.3787384 C-3.08779057 86.64828951 -3.07524214 83.91792393 -3.0625 81.1875 C-3.05748215 79.3313814 -3.05291974 77.4752615 -3.04882812 75.61914062 C-3.03782836 71.0793952 -3.02057893 66.5397117 -3 62 C-1.515 61.505 -1.515 61.505 0 61 C0 40.87 0 20.74 0 0 Z " fill="#71949E" transform="translate(1100,427)"/>
<path d="M0 0 C10 0 10 0 14 3 C14.4375 6 14.4375 6 14 9 C12.5 10.875 12.5 10.875 11 12 C11.45375 12.515625 11.9075 13.03125 12.375 13.5625 C14.38200383 16.57300574 15.12731809 19.50927237 16 23 C14.12109375 22.75 14.12109375 22.75 12 22 C10.91015625 20.1875 10.91015625 20.1875 10.0625 18 C9.1429292 15.83450491 9.1429292 15.83450491 8 14 C5.3852733 12.87184635 5.3852733 12.87184635 3 13 C3 16.3 3 19.6 3 23 C2.01 23 1.02 23 0 23 C0 15.41 0 7.82 0 0 Z " fill="#F1FAFA" transform="translate(602,567)"/>
<path d="M0 0 C10 0 10 0 14 3 C14.4375 6 14.4375 6 14 9 C12.5 10.875 12.5 10.875 11 12 C11.45375 12.70125 11.9075 13.4025 12.375 14.125 C14.01686943 17.02984591 15.03677099 19.8139348 16 23 C14.12109375 22.75 14.12109375 22.75 12 22 C10.91015625 20.1875 10.91015625 20.1875 10.0625 18 C9.1429292 15.83450491 9.1429292 15.83450491 8 14 C5.3852733 12.87184635 5.3852733 12.87184635 3 13 C3 16.3 3 19.6 3 23 C2.01 23 1.02 23 0 23 C0 15.41 0 7.82 0 0 Z " fill="#F1FAF9" transform="translate(813,567)"/>
<path d="M0 0 C5 1 5 1 7.203125 3.87109375 C7.90190255 5.05028086 8.58379359 6.23960963 9.25 7.4375 C9.600625 8.03626953 9.95125 8.63503906 10.3125 9.25195312 C11.60480037 11.4712305 12.85138375 13.70276749 14 16 C14.33 10.72 14.66 5.44 15 0 C15.99 0 16.98 0 18 0 C18 7.59 18 15.18 18 23 C13 22 13 22 11.60620117 20.41772461 C11.25533447 19.75264893 10.90446777 19.08757324 10.54296875 18.40234375 C10.15302734 17.68369141 9.76308594 16.96503906 9.36132812 16.22460938 C8.97396484 15.46986328 8.58660156 14.71511719 8.1875 13.9375 C7.78080078 13.17888672 7.37410156 12.42027344 6.95507812 11.63867188 C5.95464351 9.76727066 4.97525608 7.88464519 4 6 C3.67 11.61 3.34 17.22 3 23 C2.01 23 1.02 23 0 23 C0 15.41 0 7.82 0 0 Z " fill="#F4FAF6" transform="translate(771,567)"/>
<path d="M0 0 C5 1 5 1 7.203125 3.87109375 C7.90190255 5.05028086 8.58379359 6.23960963 9.25 7.4375 C9.600625 8.03626953 9.95125 8.63503906 10.3125 9.25195312 C11.60480037 11.4712305 12.85138375 13.70276749 14 16 C14.33 10.72 14.66 5.44 15 0 C15.99 0 16.98 0 18 0 C18 7.59 18 15.18 18 23 C13 22 13 22 11.60620117 20.41772461 C11.25533447 19.75264893 10.90446777 19.08757324 10.54296875 18.40234375 C10.15302734 17.68369141 9.76308594 16.96503906 9.36132812 16.22460938 C8.97396484 15.46986328 8.58660156 14.71511719 8.1875 13.9375 C7.78080078 13.17888672 7.37410156 12.42027344 6.95507812 11.63867188 C5.95464351 9.76727066 4.97525608 7.88464519 4 6 C3.67 11.61 3.34 17.22 3 23 C2.01 23 1.02 23 0 23 C0 15.41 0 7.82 0 0 Z " fill="#F4FAF7" transform="translate(698,567)"/>
<path d="M0 0 C5.53846154 3.07692308 5.53846154 3.07692308 7 6 C7.43412527 14.82721382 7.43412527 14.82721382 5 19 C2.20545782 22.04111943 0.06723285 23.2774533 -4 23.5 C-8.03457024 23.30170354 -10.16443325 21.92149301 -13 19 C-14.97698481 15.04603037 -14.57069292 10.29880647 -14 6 C-9.86696681 0.56179844 -6.71793242 -0.5598277 0 0 Z M-8.875 4.375 C-11.36011663 7.96461291 -11.29448142 10.65639901 -11 15 C-10.20572041 18.01950153 -10.20572041 18.01950153 -8 20 C-5.22644982 20.65871817 -2.74473854 20.80239332 0 20 C2.13390988 17.87574582 2.91808298 16.50836741 3.3984375 13.52734375 C3.39070312 12.67269531 3.38296875 11.81804688 3.375 10.9375 C3.38273438 10.08027344 3.39046875 9.22304688 3.3984375 8.33984375 C2.9212153 5.53733301 2.29387134 4.64376495 0 3 C-4.73214872 2.42078689 -4.73214872 2.42078689 -8.875 4.375 Z " fill="#F3F9F7" transform="translate(846,567)"/>
<path d="M0 0 C0.88626689 2.65880066 1.14512771 4.28216281 1.20532227 7.01464844 C1.22526245 7.82180298 1.24520264 8.62895752 1.26574707 9.46057129 C1.2824646 10.33467651 1.29918213 11.20878174 1.31640625 12.109375 C1.33723267 13.02086304 1.35805908 13.93235107 1.3795166 14.87145996 C1.44547155 17.8308898 1.50428098 20.79040866 1.5625 23.75 C1.6052736 25.76399982 1.6481609 27.77799722 1.69116211 29.79199219 C1.96814986 43.19599497 2.13527218 56.5930236 2 70 C2.66 70.33 3.32 70.66 4 71 C3.34 71.99 2.68 72.98 2 74 C2.99 75.98 3.98 77.96 5 80 C6.98 79.505 6.98 79.505 9 79 C9 82 9 82 7.46875 83.60546875 C6.8190625 84.12753906 6.169375 84.64960938 5.5 85.1875 C4.8503125 85.71730469 4.200625 86.24710937 3.53125 86.79296875 C3.0259375 87.19128906 2.520625 87.58960938 2 88 C1.01 87.34 0.02 86.68 -1 86 C-1.77970957 82.10145215 -2.22122507 79.21150587 -1.50708008 75.30059814 C-0.9668292 71.78409035 -0.88712706 68.48194053 -0.90234375 64.92480469 C-0.90380402 64.24439117 -0.90526428 63.56397766 -0.9067688 62.86294556 C-0.91055377 61.39630142 -0.91664783 59.92966175 -0.92483521 58.46303558 C-0.9376582 56.14325545 -0.94412883 53.82353281 -0.94897461 51.50372314 C-0.96036607 46.58578945 -0.97963154 41.66790362 -1 36.75 C-1.02359087 31.03629147 -1.04396486 25.32260951 -1.05593872 19.60886383 C-1.06243161 17.32097279 -1.07493488 15.03316402 -1.08764648 12.74530029 C-1.09127734 11.34940666 -1.09462927 9.95351226 -1.09765625 8.55761719 C-1.10289307 7.33661316 -1.10812988 6.11560913 -1.11352539 4.85760498 C-1 2 -1 2 0 0 Z " fill="#4C9670" transform="translate(743,250)"/>
<path d="M0 0 C2.5 1 2.5 1 4 2 C4 2.66 4 3.32 4 4 C3.16855469 3.95359375 2.33710937 3.9071875 1.48046875 3.859375 C0.39378906 3.82328125 -0.69289063 3.7871875 -1.8125 3.75 C-2.89144531 3.70359375 -3.97039063 3.6571875 -5.08203125 3.609375 C-8.07441973 3.71664088 -8.07441973 3.71664088 -9.86328125 5.796875 C-11.52281514 9.0132912 -11.38171163 11.43735809 -11 15 C-10.18547684 17.55851025 -10.18547684 17.55851025 -8 19 C-5.24513897 19.33145271 -2.79328696 19.18316636 0 19 C0.33 17.02 0.66 15.04 1 13 C-0.98 13 -2.96 13 -5 13 C-5 12.01 -5 11.02 -5 10 C-2.03 10 0.94 10 4 10 C4 13.63 4 17.26 4 21 C-0.24350556 23.12175278 -3.37673082 23.59744035 -8 23 C-11.8709903 21.31696074 -13.41045369 19.84545264 -15 16 C-15.65528607 12.20623855 -15.86351149 8.5472585 -13.94921875 5.1171875 C-9.76895154 0.01208241 -6.37479509 -0.5417316 0 0 Z " fill="#F7F9F6" transform="translate(744,567)"/>
<path d="M0 0 C0.99 0 1.98 0 3 0 C3.33 6.27 3.66 12.54 4 19 C6.64 19 9.28 19 12 19 C14.48044315 15.27933528 14.44381173 12.13459526 14.625 7.8125 C14.68300781 6.68811523 14.68300781 6.68811523 14.7421875 5.54101562 C14.83628216 3.69440801 14.91922319 1.8472381 15 0 C15.99 0 16.98 0 18 0 C18.05404449 2.75026417 18.09369306 5.49946203 18.125 8.25 C18.15013672 9.41595703 18.15013672 9.41595703 18.17578125 10.60546875 C18.23793993 17.87803398 18.23793993 17.87803398 16 21 C12.56882841 23.54160859 9.14268205 23.36988233 5 23 C1.8149643 21.23984869 1.16703028 20.50109084 0 17 C-0.07973476 15.66474283 -0.10771338 14.32587917 -0.09765625 12.98828125 C-0.09443359 12.23095703 -0.09121094 11.47363281 -0.08789062 10.69335938 C-0.07951172 9.90767578 -0.07113281 9.12199219 -0.0625 8.3125 C-0.05798828 7.51521484 -0.05347656 6.71792969 -0.04882812 5.89648438 C-0.0370585 3.93095743 -0.01912348 1.96546915 0 0 Z " fill="#F2FBFA" transform="translate(622,567)"/>
<path d="M0 0 C4.29 0 8.58 0 13 0 C13 0.99 13 1.98 13 3 C9.7 3 6.4 3 3 3 C3 4.98 3 6.96 3 9 C5.64 9 8.28 9 11 9 C11.33 9.99 11.66 10.98 12 12 C9.03 12 6.06 12 3 12 C3 14.64 3 17.28 3 20 C6.3 20 9.6 20 13 20 C13 20.99 13 21.98 13 23 C8.71 23 4.42 23 0 23 C0 15.41 0 7.82 0 0 Z " fill="#EEF7F8" transform="translate(911,567)"/>
<path d="M0 0 C4.29 0 8.58 0 13 0 C13 0.99 13 1.98 13 3 C9.7 3 6.4 3 3 3 C3 4.98 3 6.96 3 9 C5.64 9 8.28 9 11 9 C11.33 9.99 11.66 10.98 12 12 C9.03 12 6.06 12 3 12 C3 14.64 3 17.28 3 20 C6.3 20 9.6 20 13 20 C13 20.99 13 21.98 13 23 C8.71 23 4.42 23 0 23 C0 15.41 0 7.82 0 0 Z " fill="#EEF8F9" transform="translate(795,567)"/>
<path d="M0 0 C4.29 0 8.58 0 13 0 C13 0.99 13 1.98 13 3 C9.7 3 6.4 3 3 3 C3 4.98 3 6.96 3 9 C5.64 9 8.28 9 11 9 C11.33 9.99 11.66 10.98 12 12 C9.03 12 6.06 12 3 12 C3 14.64 3 17.28 3 20 C6.3 20 9.6 20 13 20 C13 20.99 13 21.98 13 23 C8.71 23 4.42 23 0 23 C0 15.41 0 7.82 0 0 Z " fill="#EEF8F9" transform="translate(753,567)"/>
<path d="M0 0 C0.66 0.33 1.32 0.66 2 1 C1.67 1.99 1.34 2.98 1 4 C-1.31 4 -3.62 4 -6 4 C-5.63507846 6.67419068 -5.334081 7.7328792 -3.1875 9.44921875 C-2.465625 9.85785156 -1.74375 10.26648438 -1 10.6875 C2.98734177 12.98734177 2.98734177 12.98734177 4 14 C4.375 16.3125 4.375 16.3125 4 19 C1.86244674 21.47154596 0.2534997 22.82743408 -3.04296875 23.28125 C-5.94543638 23.32354461 -8.37221334 23.31389333 -11 22 C-11 21.01 -11 20.02 -11 19 C-7.7 19 -4.4 19 -1 19 C-0.67 17.35 -0.34 15.7 0 14 C-1.36125 13.62875 -1.36125 13.62875 -2.75 13.25 C-6.18241801 11.92983923 -7.81828523 10.93692372 -10 8 C-10.5 5.4375 -10.5 5.4375 -10 3 C-7.01145346 -0.33337883 -4.31526669 -0.37524058 0 0 Z " fill="#F6F9F7" transform="translate(938,567)"/>
<path d="M0 0 C0.66 0.33 1.32 0.66 2 1 C1.67 1.99 1.34 2.98 1 4 C-1.31 4 -3.62 4 -6 4 C-5.63507846 6.67419068 -5.334081 7.7328792 -3.1875 9.44921875 C-2.465625 9.85785156 -1.74375 10.26648438 -1 10.6875 C2.98734177 12.98734177 2.98734177 12.98734177 4 14 C4.375 16.3125 4.375 16.3125 4 19 C1.86244674 21.47154596 0.2534997 22.82743408 -3.04296875 23.28125 C-5.94543638 23.32354461 -8.37221334 23.31389333 -11 22 C-11 21.01 -11 20.02 -11 19 C-7.7 19 -4.4 19 -1 19 C-0.67 17.35 -0.34 15.7 0 14 C-1.36125 13.62875 -1.36125 13.62875 -2.75 13.25 C-6.18241801 11.92983923 -7.81828523 10.93692372 -10 8 C-10.5 5.4375 -10.5 5.4375 -10 3 C-7.01145346 -0.33337883 -4.31526669 -0.37524058 0 0 Z " fill="#F6FAF8" transform="translate(867,567)"/>
<path d="M0 0 C0.66 0.33 1.32 0.66 2 1 C1.67 1.99 1.34 2.98 1 4 C-1.31 4 -3.62 4 -6 4 C-5.63507846 6.67419068 -5.334081 7.7328792 -3.1875 9.44921875 C-2.465625 9.85785156 -1.74375 10.26648438 -1 10.6875 C2.98734177 12.98734177 2.98734177 12.98734177 4 14 C4.375 16.3125 4.375 16.3125 4 19 C1.86244674 21.47154596 0.2534997 22.82743408 -3.04296875 23.28125 C-5.94543638 23.32354461 -8.37221334 23.31389333 -11 22 C-11 21.01 -11 20.02 -11 19 C-7.7 19 -4.4 19 -1 19 C-0.67 17.35 -0.34 15.7 0 14 C-1.36125 13.62875 -1.36125 13.62875 -2.75 13.25 C-6.18241801 11.92983923 -7.81828523 10.93692372 -10 8 C-10.5 5.4375 -10.5 5.4375 -10 3 C-7.01145346 -0.33337883 -4.31526669 -0.37524058 0 0 Z " fill="#F6FAF8" transform="translate(655,567)"/>
<path d="M0 0 C11 0 11 0 13.75390625 2.265625 C14.64916016 3.74289062 14.64916016 3.74289062 15.5625 5.25 C16.18253906 6.22453125 16.80257812 7.1990625 17.44140625 8.203125 C18.69105548 10.44560331 19.89207415 12.68493106 21 15 C20.01 15.33 19.02 15.66 18 16 C18 15.34 18 14.68 18 14 C17.01 14.33 16.02 14.66 15 15 C13.69951159 12.39902318 13.43528578 9.86044938 13 7 C12.01 8.32 11.02 9.64 10 11 C9.67 9.02 9.34 7.04 9 5 C6.69 5 4.38 5 2 5 C1.67 14.24 1.34 23.48 1 33 C0.67 33 0.34 33 0 33 C0 22.11 0 11.22 0 0 Z " fill="#93B5C1" transform="translate(903,497)"/>
<path d="M0 0 C5.94 0 11.88 0 18 0 C18 0.99 18 1.98 18 3 C15.69 3 13.38 3 11 3 C11 9.6 11 16.2 11 23 C9.68 23 8.36 23 7 23 C7 16.4 7 9.8 7 3 C5.02 3 3.04 3 1 3 C0.67 2.01 0.34 1.02 0 0 Z " fill="#EBF2F3" transform="translate(581,567)"/>
<path d="M0 0 C0.33 0 0.66 0 1 0 C1.33 34.32 1.66 68.64 2 104 C2.66 104.33 3.32 104.66 4 105 C4 105.66 4 106.32 4 107 C2.35 106.67 0.7 106.34 -1 106 C-0.67 71.02 -0.34 36.04 0 0 Z " fill="#86A8B3" transform="translate(1124,427)"/>
<path d="M0 0 C5.94 0 11.88 0 18 0 C18 0.99 18 1.98 18 3 C15.69 3 13.38 3 11 3 C11 9.6 11 16.2 11 23 C10.01 23 9.02 23 8 23 C8 16.4 8 9.8 8 3 C5.69 3 3.38 3 1 3 C0.67 2.01 0.34 1.02 0 0 Z " fill="#F6F5F0" transform="translate(881,567)"/>
<path d="M0 0 C5.94 0 11.88 0 18 0 C18 0.99 18 1.98 18 3 C15.69 3 13.38 3 11 3 C11 9.6 11 16.2 11 23 C10.01 23 9.02 23 8 23 C8 16.4 8 9.8 8 3 C5.69 3 3.38 3 1 3 C0.67 2.01 0.34 1.02 0 0 Z " fill="#F6F5F2" transform="translate(660,567)"/>
<path d="M0 0 C0 0.66 0 1.32 0 2 C-1.46875 3.2265625 -1.46875 3.2265625 -3.5 4.625 C-8.14483561 7.97591712 -12.05405637 11.86515481 -16 16 C-17.16406323 14.83593677 -18.32754865 13.67129061 -19.48828125 12.50390625 C-20.53794602 11.4596661 -21.59871848 10.42652024 -22.66796875 9.40234375 C-24.14814809 7.97138652 -25.57767678 6.48847779 -27 5 C-27 4.34 -27 3.68 -27 3 C-25.824375 3.495 -25.824375 3.495 -24.625 4 C-22.15667503 5.11866511 -22.15667503 5.11866511 -20 5 C-19.67 6.32 -19.34 7.64 -19 9 C-18.34 9 -17.68 9 -17 9 C-17 9.66 -17 10.32 -17 11 C-16.071875 10.01 -16.071875 10.01 -15.125 9 C-13 7 -13 7 -11 7 C-11 6.34 -11 5.68 -11 5 C-10.01 5 -9.02 5 -8 5 C-7.71125 4.360625 -7.4225 3.72125 -7.125 3.0625 C-5.228943 -0.41360449 -4.0216034 0 0 0 Z " fill="#97CBC3" transform="translate(760,228)"/>
<path d="M0 0 C0.62003906 0.2165625 1.24007812 0.433125 1.87890625 0.65625 C12.84972567 4.1055906 23.94544768 4.10303223 35 1 C34.6875 2.9375 34.6875 2.9375 34 5 C33.01 5.33 32.02 5.66 31 6 C31 5.34 31 4.68 31 4 C29.68 4 28.36 4 27 4 C26.67 4.99 26.34 5.98 26 7 C25.01 6.67 24.02 6.34 23 6 C22.67 6.66 22.34 7.32 22 8 C21.67 7.34 21.34 6.68 21 6 C16.97007218 6.55312735 12.97977076 7.1558062 9 8 C9 7.34 9 6.68 9 6 C4.70700357 4.73735399 2.12168689 5.37049588 -2 7 C-1.125 1.125 -1.125 1.125 0 0 Z " fill="#8FB3B3" transform="translate(1010,528)"/>
<path d="M0 0 C1.97682796 3.30203485 2.0498536 3.78278076 1.125 7.8125 C0.92261719 8.50472656 0.72023438 9.19695312 0.51171875 9.91015625 C-0.23076339 12.94243062 -0.05974273 15.89337797 0 19 C-0.25910156 19.94359375 -0.25910156 19.94359375 -0.5234375 20.90625 C-1.08226637 23.36143256 -0.89194546 25.26085656 -0.5625 27.75 C-0.46066406 28.54921875 -0.35882812 29.3484375 -0.25390625 30.171875 C-0.17011719 30.77515625 -0.08632813 31.3784375 0 32 C-5.56974464 25.2194413 -4.63549838 16.35226442 -4 8 C-2.99830344 4.83306416 -1.85526654 2.7828998 0 0 Z " fill="#6FA57D" transform="translate(678,240)"/>
<path d="M0 0 C14.19 0 28.38 0 43 0 C43 0.66 43 1.32 43 2 C37.43263553 2.81373388 32.17810688 3.08851549 26.5625 2.87890625 C25.41418701 2.84348976 25.41418701 2.84348976 24.24267578 2.80735779 C21.82822077 2.73156654 19.41415768 2.64718612 17 2.5625 C15.35027878 2.50919433 13.70053916 2.45645473 12.05078125 2.40429688 C8.03361205 2.27606797 4.01677052 2.14014207 0 2 C0 1.34 0 0.68 0 0 Z " fill="#1B3C59" transform="translate(357,427)"/>
<path d="M0 0 C0.66 0 1.32 0 2 0 C2 5.28 2 10.56 2 16 C2.66 16 3.32 16 4 16 C4 16.66 4 17.32 4 18 C4.99 18.33 5.98 18.66 7 19 C6.88557539 20.60495567 6.75805306 22.20898119 6.625 23.8125 C6.55539062 24.70582031 6.48578125 25.59914063 6.4140625 26.51953125 C6 29 6 29 4 32 C3.51279787 30.64870353 3.03571816 29.29375684 2.5625 27.9375 C2.29566406 27.18339844 2.02882813 26.42929687 1.75390625 25.65234375 C0.0473992 19.64862205 -0.13605591 13.74685494 -0.0625 7.5625 C-0.05798828 6.83095703 -0.05347656 6.09941406 -0.04882812 5.34570312 C-0.03718148 3.56376581 -0.01925191 1.78187137 0 0 Z " fill="#97B9CA" transform="translate(655,240)"/>
<path d="M0 0 C2.5625 1.25 2.5625 1.25 5 3 C5.33 3.99 5.66 4.98 6 6 C7.88316159 7.10836423 7.88316159 7.10836423 10 8 C10.99 8.66 11.98 9.32 13 10 C13 10.66 13 11.32 13 12 C13.99 12.33 14.98 12.66 16 13 C16.6875 15.0625 16.6875 15.0625 17 17 C16.01 17.33 15.02 17.66 14 18 C14 17.34 14 16.68 14 16 C13.01 16.33 12.02 16.66 11 17 C11 16.34 11 15.68 11 15 C10.01 14.67 9.02 14.34 8 14 C8.33 13.01 8.66 12.02 9 11 C8.01 11 7.02 11 6 11 C6.33 10.01 6.66 9.02 7 8 C5.68 7.34 4.36 6.68 3 6 C3 5.34 3 4.68 3 4 C1.35 3.67 -0.3 3.34 -2 3 C-2 2.34 -2 1.68 -2 1 C-1.34 0.67 -0.68 0.34 0 0 Z " fill="#97C3BB" transform="translate(701,298)"/>
<path d="M0 0 C0 3.3 0 6.6 0 10 C1.65 9.34 3.3 8.68 5 8 C4.67 9.98 4.34 11.96 4 14 C0.61236761 13.71330918 -0.68859218 13.34152464 -3.01953125 10.78515625 C-3.90705078 9.43744141 -3.90705078 9.43744141 -4.8125 8.0625 C-5.41707031 7.16660156 -6.02164063 6.27070313 -6.64453125 5.34765625 C-8 3 -8 3 -8 1 C-5.29120665 -0.35439668 -2.99066732 -0.06501451 0 0 Z " fill="#A2C4CF" transform="translate(848,200)"/>
<path d="M0 0 C0.99 0 1.98 0 3 0 C3 7.59 3 15.18 3 23 C2.01 23 1.02 23 0 23 C0 15.41 0 7.82 0 0 Z " fill="#EDFBFB" transform="translate(902,567)"/>
<path d="M0 0 C0.99 0 1.98 0 3 0 C3 7.59 3 15.18 3 23 C2.01 23 1.02 23 0 23 C0 15.41 0 7.82 0 0 Z " fill="#EDFBFB" transform="translate(875,567)"/>
<path d="M0 0 C0.99 0 1.98 0 3 0 C3 7.59 3 15.18 3 23 C2.01 23 1.02 23 0 23 C0 15.41 0 7.82 0 0 Z " fill="#EEFBFB" transform="translate(689,567)"/>
<path d="M0 0 C1.32 0 2.64 0 4 0 C5.921875 1.96875 5.921875 1.96875 7.75 4.5 C8.67039062 5.75296875 8.67039062 5.75296875 9.609375 7.03125 C10.06828125 7.6809375 10.5271875 8.330625 11 9 C9 11 9 11 6.8359375 11.1953125 C5.61777344 11.16050781 5.61777344 11.16050781 4.375 11.125 C3.55773437 11.10695313 2.74046875 11.08890625 1.8984375 11.0703125 C1.27195312 11.04710937 0.64546875 11.02390625 0 11 C0.556875 9.6696875 0.556875 9.6696875 1.125 8.3125 C2.10784228 4.59173995 1.76062164 3.32561865 0 0 Z " fill="#112E4A" transform="translate(952,518)"/>
<path d="M0 0 C0.99 0.33 1.98 0.66 3 1 C3.73046875 2.84765625 3.73046875 2.84765625 4.1875 5.0625 C4.34605469 5.79597656 4.50460937 6.52945313 4.66796875 7.28515625 C4.77753906 7.85105469 4.88710938 8.41695312 5 9 C6.65 8.67 8.3 8.34 10 8 C8.35 9.65 6.7 11.3 5 13 C3.8944811 12.06409496 2.79064547 11.12620142 1.6875 10.1875 C1.07261719 9.66542969 0.45773437 9.14335937 -0.17578125 8.60546875 C-1.85424679 7.12827531 -3.43882034 5.59960869 -5 4 C-4.34 4 -3.68 4 -3 4 C-3 3.34 -3 2.68 -3 2 C-2.01 2 -1.02 2 0 2 C0 1.34 0 0.68 0 0 Z " fill="#112F4F" transform="translate(740,210)"/>
<path d="M0 0 C1 3 1 3 0 6 C-1.70703125 7.421875 -1.70703125 7.421875 -3.8125 8.75 C-4.49957031 9.19859375 -5.18664062 9.6471875 -5.89453125 10.109375 C-8 11 -8 11 -10.02734375 10.80078125 C-12.2016222 9.91815336 -13.87417101 8.84437174 -15.75 7.4375 C-16.36359375 6.98246094 -16.9771875 6.52742187 -17.609375 6.05859375 C-18.06828125 5.70925781 -18.5271875 5.35992187 -19 5 C-15.87042211 4.1161234 -14.12598159 4.06220552 -11 5 C-10.34 5 -9.68 5 -9 5 C-8.030625 5.103125 -7.06125 5.20625 -6.0625 5.3125 C-5.051875 5.209375 -4.04125 5.10625 -3 5 C-1.0645852 2.60943058 -1.0645852 2.60943058 0 0 Z " fill="#9DBDCD" transform="translate(754,180)"/>
<path d="M0 0 C4.55384615 -0.36923077 4.55384615 -0.36923077 6.8125 1.5 C7.204375 1.995 7.59625 2.49 8 3 C8.66 2.67 9.32 2.34 10 2 C11 3 12 4 13 5 C12.71395102 6.67542976 12.38218767 8.34385343 12 10 C13.65 10.33 15.3 10.66 17 11 C16.34 12.32 15.68 13.64 15 15 C10 10 5 5 0 0 Z " fill="#0F2D4B" transform="translate(682,326)"/>
<path d="M0 0 C0.65234375 1.76953125 0.65234375 1.76953125 1 4 C0.00390625 5.88671875 0.00390625 5.88671875 -1.4375 7.6875 C-3.24593712 9.63329039 -3.24593712 9.63329039 -4 12 C-4.94875 12.309375 -5.8975 12.61875 -6.875 12.9375 C-9.86080408 13.87394742 -9.86080408 13.87394742 -12 15 C-14.125 14.5625 -14.125 14.5625 -16 14 C-16 13.34 -16 12.68 -16 12 C-15.34773437 11.72027344 -14.69546875 11.44054687 -14.0234375 11.15234375 C-7.78414028 8.29036523 -4.10239663 5.5058481 0 0 Z " fill="#12304D" transform="translate(820,496)"/>
<path d="M0 0 C0.33 1.32 0.66 2.64 1 4 C1.66 4 2.32 4 3 4 C3.66 5.65 4.32 7.3 5 9 C3.35 9 1.7 9 0 9 C-0.33 8.34 -0.66 7.68 -1 7 C-1.99 7.495 -1.99 7.495 -3 8 C-5.43189168 7.14883791 -7.69691285 6.15154357 -10 5 C-8.71186658 4.16121545 -7.41936744 3.32913217 -6.125 2.5 C-5.40570312 2.0359375 -4.68640625 1.571875 -3.9453125 1.09375 C-2 0 -2 0 0 0 Z " fill="#0F2B48" transform="translate(1012,494)"/>
<path d="M0 0 C0.66 0 1.32 0 2 0 C2.33 0.66 2.66 1.32 3 2 C3.99 2 4.98 2 6 2 C7.67099977 2.31088368 9.33871537 2.64080332 11 3 C10.01 4.485 10.01 4.485 9 6 C10.32 6.33 11.64 6.66 13 7 C13 8.32 13 9.64 13 11 C13.66 10.67 14.32 10.34 15 10 C15 11.32 15 12.64 15 14 C11.85093585 12.58397787 9.50476328 10.86264918 6.9375 8.5625 C6.26589844 7.96566406 5.59429688 7.36882812 4.90234375 6.75390625 C4.27457031 6.17511719 3.64679687 5.59632813 3 5 C2.42378906 4.47277344 1.84757813 3.94554687 1.25390625 3.40234375 C0 2 0 2 0 0 Z " fill="#A2C4D1" transform="translate(626,430)"/>
<path d="M0 0 C0.99 0 1.98 0 3 0 C3.05404449 2.75026417 3.09369306 5.49946203 3.125 8.25 C3.15013672 9.41595703 3.15013672 9.41595703 3.17578125 10.60546875 C3.24002584 18.122086 3.24002584 18.122086 1 21 C0.01 21.33 -0.98 21.66 -2 22 C-1.67257812 21.35675781 -1.34515625 20.71351563 -1.0078125 20.05078125 C0.32412793 16.01882203 0.21679197 12.39933935 0.125 8.1875 C0.11597656 7.39923828 0.10695313 6.61097656 0.09765625 5.79882812 C0.07422504 3.86575334 0.03835838 1.9328362 0 0 Z " fill="#FEF8F2" transform="translate(637,567)"/>
<path d="M0 0 C2.49604304 3.74406455 3 6.54151685 3 11 C2.34 11 1.68 11 1 11 C0.67 11.99 0.34 12.98 0 14 C-2.0625 12.25 -2.0625 12.25 -4 10 C-3.75 7.75 -3.75 7.75 -3 6 C-4.32 5.67 -5.64 5.34 -7 5 C-6.030625 4.360625 -5.06125 3.72125 -4.0625 3.0625 C-1.23963731 1.3034741 -1.23963731 1.3034741 0 0 Z " fill="#93B7BA" transform="translate(947,488)"/>
<path d="M0 0 C0.66 0 1.32 0 2 0 C2 16.83 2 33.66 2 51 C0.68 50.34 -0.64 49.68 -2 49 C-2 48.34 -2 47.68 -2 47 C-1.34 47 -0.68 47 0 47 C0 31.49 0 15.98 0 0 Z " fill="#93B6CA" transform="translate(681,431)"/>
<path d="M0 0 C1.37432457 3.81756824 0.67975039 7.07255329 0 11 C-1.65 11.33 -3.3 11.66 -5 12 C-5.33 12.99 -5.66 13.98 -6 15 C-6.99 13.68 -7.98 12.36 -9 11 C-8.43410156 10.37351562 -7.86820313 9.74703125 -7.28515625 9.1015625 C-6.18494141 7.87566406 -6.18494141 7.87566406 -5.0625 6.625 C-4.33160156 5.81289063 -3.60070313 5.00078125 -2.84765625 4.1640625 C-0.97010529 2.14075833 -0.97010529 2.14075833 0 0 Z " fill="#91B2B8" transform="translate(1062,513)"/>
<path d="M0 0 C2.7839183 1.39195915 2.97898997 3.15575779 4 6 C5.32 5.67 6.64 5.34 8 5 C8 8 8 8 6.50390625 9.60546875 C5.86324219 10.12753906 5.22257813 10.64960938 4.5625 11.1875 C3.92441406 11.71730469 3.28632812 12.24710937 2.62890625 12.79296875 C1 14 1 14 0 14 C0 9.38 0 4.76 0 0 Z " fill="#418C7D" transform="translate(744,324)"/>
<path d="M0 0 C1.65 0 3.3 0 5 0 C4.44192465 4.04841101 2.36090049 6.25719159 -0.3125 9.25 C-1.09238281 10.14203125 -1.87226562 11.0340625 -2.67578125 11.953125 C-5 14 -5 14 -9 14 C-9 13.34 -9 12.68 -9 12 C-8.01 12 -7.02 12 -6 12 C-5.67 11.01 -5.34 10.02 -5 9 C-2.9375 8.3125 -2.9375 8.3125 -1 8 C-1.33 7.01 -1.66 6.02 -2 5 C-1.0625 2.3125 -1.0625 2.3125 0 0 Z " fill="#277A6A" transform="translate(802,273)"/>
<path d="M0 0 C2 1 2 1 2.8515625 3.28515625 C3.10679687 4.20167969 3.36203125 5.11820312 3.625 6.0625 C3.88539063 6.98160156 4.14578125 7.90070313 4.4140625 8.84765625 C4.60742188 9.55792969 4.80078125 10.26820313 5 11 C3.35 12.65 1.7 14.3 0 16 C-1.2077558 12.37673261 -0.54311128 11.35853631 1 8 C0.34 8 -0.32 8 -1 8 C-1.33 5.69 -1.66 3.38 -2 1 C-1.34 0.67 -0.68 0.34 0 0 Z " fill="#A0C4D1" transform="translate(634,271)"/>
<path d="M0 0 C0.66 0.99 1.32 1.98 2 3 C2.66 2.67 3.32 2.34 4 2 C4 7.28 4 12.56 4 18 C3.34 17.01 2.68 16.02 2 15 C1.34 15.99 0.68 16.98 0 18 C-0.19384179 15.18780295 -0.38036603 12.37545804 -0.5625 9.5625 C-0.61857422 8.76005859 -0.67464844 7.95761719 -0.73242188 7.13085938 C-0.8616295 5.08937889 -0.9351273 3.04453631 -1 1 C-0.67 0.67 -0.34 0.34 0 0 Z " fill="#A2C4D1" transform="translate(857,238)"/>
<path d="M0 0 C2.31 0 4.62 0 7 0 C7.625 2.375 7.625 2.375 8 5 C6 7 6 7 2.875 7.125 C1.451875 7.063125 1.451875 7.063125 0 7 C0 4.69 0 2.38 0 0 Z " fill="#9EC0C0" transform="translate(816,570)"/>
<path d="M0 0 C2.31 0 4.62 0 7 0 C7.625 2.375 7.625 2.375 8 5 C6 7 6 7 2.875 7.125 C1.451875 7.063125 1.451875 7.063125 0 7 C0 4.69 0 2.38 0 0 Z " fill="#A1C3C9" transform="translate(605,570)"/>
<path d="M0 0 C-0.99 0.33 -1.98 0.66 -3 1 C-3 1.66 -3 2.32 -3 3 C-4.53125 4.5078125 -4.53125 4.5078125 -6.5 6.125 C-7.1496875 6.66382813 -7.799375 7.20265625 -8.46875 7.7578125 C-8.9740625 8.16773438 -9.479375 8.57765625 -10 9 C-11.32 8.34 -12.64 7.68 -14 7 C-13.67 6.401875 -13.34 5.80375 -13 5.1875 C-11.79212012 2.94613529 -11.79212012 2.94613529 -12 0 C-11.01 0.66 -10.02 1.32 -9 2 C-8.071875 1.484375 -7.14375 0.96875 -6.1875 0.4375 C-3 -1 -3 -1 0 0 Z " fill="#93B9C7" transform="translate(755,347)"/>
<path d="M0 0 C2.6855594 2.6855594 3.06049974 5.37621328 4 9 C1.94766315 11.2477975 0.99332739 12.0022242 -2 13 C-3.46845421 7.52667068 -2.44038726 4.88077452 0 0 Z " fill="#9EC3CF" transform="translate(475,491)"/>
<path d="M0 0 C0.33 0 0.66 0 1 0 C1.33 3.96 1.66 7.92 2 12 C-2.03744506 9.98127747 -4.62010675 7.91899872 -8 5 C-5 3 -5 3 -3 3 C-3 3.66 -3 4.32 -3 5 C-2.34 5 -1.68 5 -1 5 C-1.33 4.01 -1.66 3.02 -2 2 C-1.34 1.34 -0.68 0.68 0 0 Z " fill="#11314A" transform="translate(704,521)"/>
<path d="M0 0 C0 3.19610552 -0.54671542 4.41717626 -2 7.1875 C-2.37125 7.90292969 -2.7425 8.61835938 -3.125 9.35546875 C-3.41375 9.89816406 -3.7025 10.44085938 -4 11 C-4.66 11 -5.32 11 -6 11 C-6.33 11.66 -6.66 12.32 -7 13 C-7.99 13.66 -8.98 14.32 -10 15 C-10.33 13.68 -10.66 12.36 -11 11 C-10.34 11 -9.68 11 -9 11 C-8.61714844 10.12601563 -8.61714844 10.12601563 -8.2265625 9.234375 C-6.88258913 6.78611777 -5.38189704 5.18256752 -3.375 3.25 C-2.74335937 2.63640625 -2.11171875 2.0228125 -1.4609375 1.390625 C-0.73777344 0.70226562 -0.73777344 0.70226562 0 0 Z " fill="#458F79" transform="translate(753,234)"/>
<path d="M0 0 C2.31 0 4.62 0 7 0 C7 0.66 7 1.32 7 2 C7.66 2.66 8.32 3.32 9 4 C9 4.66 9 5.32 9 6 C4.23007601 5.2845114 -0.36763208 4.33475008 -5 3 C-5.33 2.34 -5.66 1.68 -6 1 C-3.03 1.495 -3.03 1.495 0 2 C0 1.34 0 0.68 0 0 Z " fill="#9FC3D3" transform="translate(407,425)"/>
<path d="M0 0 C0 0.99 0 1.98 0 3 C-1.91197039 3.70045456 -3.82980435 4.384919 -5.75 5.0625 C-6.81734375 5.44535156 -7.8846875 5.82820312 -8.984375 6.22265625 C-11.92280042 6.98010011 -13.22348948 7.07151741 -16 6 C-15.34 5.67 -14.68 5.34 -14 5 C-14.33 4.34 -14.66 3.68 -15 3 C-11.14275976 1.18482812 -8.23240187 0.90594663 -4 1 C-2 0 -2 0 0 0 Z " fill="#A3C5D3" transform="translate(772,176)"/>
<path d="M0 0 C0.99 0.33 1.98 0.66 3 1 C2.67 1.99 2.34 2.98 2 4 C1.401875 4.268125 0.80375 4.53625 0.1875 4.8125 C-2.30936831 5.93173456 -2.30936831 5.93173456 -3.875 9.0625 C-6 12 -6 12 -9.25 12.875 C-10.61125 12.936875 -10.61125 12.936875 -12 13 C-11.06409496 11.8944811 -10.12620142 10.79064547 -9.1875 9.6875 C-8.66542969 9.07261719 -8.14335938 8.45773437 -7.60546875 7.82421875 C-4.6626898 4.48047722 -4.6626898 4.48047722 -3 3 C-2.34 3 -1.68 3 -1 3 C-0.67 2.01 -0.34 1.02 0 0 Z " fill="#92B4C9" transform="translate(798,333)"/>
<path d="M0 0 C0.33 2.31 0.66 4.62 1 7 C-0.98 7.99 -0.98 7.99 -3 9 C-3.99 8.34 -4.98 7.68 -6 7 C-6.99 7.495 -6.99 7.495 -8 8 C-6.48291727 4.46014029 -4.24676932 0 0 0 Z " fill="#A1C5D3" transform="translate(439,511)"/>
<path d="M0 0 C0.66 0.33 1.32 0.66 2 1 C3.15093591 5.22009832 3.48552122 9.66367887 4 14 C2.02 14.33 0.04 14.66 -2 15 C-2.33 14.34 -2.66 13.68 -3 13 C-2.34 12.34 -1.68 11.68 -1 11 C-0.53709779 8.33757179 -0.53709779 8.33757179 -0.375 5.375 C-0.30023437 4.37210937 -0.22546875 3.36921875 -0.1484375 2.3359375 C-0.09945312 1.56507813 -0.05046875 0.79421875 0 0 Z " fill="#042244" transform="translate(563,478)"/>
<path d="M0 0 C0.33 0 0.66 0 1 0 C1 2.64 1 5.28 1 8 C4.3 8 7.6 8 11 8 C11 8.99 11 9.98 11 11 C7.04 11 3.08 11 -1 11 C-0.67 7.37 -0.34 3.74 0 0 Z " fill="#F7F9F6" transform="translate(913,579)"/>
<path d="M0 0 C0.33 0 0.66 0 1 0 C1 2.64 1 5.28 1 8 C4.3 8 7.6 8 11 8 C11 8.99 11 9.98 11 11 C7.04 11 3.08 11 -1 11 C-0.67 7.37 -0.34 3.74 0 0 Z " fill="#F7FAF6" transform="translate(797,579)"/>
<path d="M0 0 C0.33 0 0.66 0 1 0 C1 2.64 1 5.28 1 8 C4.3 8 7.6 8 11 8 C11 8.99 11 9.98 11 11 C7.04 11 3.08 11 -1 11 C-0.67 7.37 -0.34 3.74 0 0 Z " fill="#F7FAF6" transform="translate(755,579)"/>
<path d="M0 0 C0.66 0.33 1.32 0.66 2 1 C1.57316761 2.58624235 1.13303842 4.1689098 0.6875 5.75 C0.44386719 6.63171875 0.20023438 7.5134375 -0.05078125 8.421875 C-1.05966849 11.16206256 -1.90950999 12.95256356 -4 15 C-6.6875 15.25 -6.6875 15.25 -9 15 C-8.60167969 14.50371094 -8.20335937 14.00742187 -7.79296875 13.49609375 C-4.40115025 9.14697367 -1.93684016 5.1649071 0 0 Z " fill="#90B2BB" transform="translate(957,473)"/>
<path d="M0 0 C0.598125 0.165 1.19625 0.33 1.8125 0.5 C4.11344336 1.1114124 4.11344336 1.1114124 7 1 C7.33 1.33 7.66 1.66 8 2 C8.33 1.34 8.66 0.68 9 0 C10.32 0.33 11.64 0.66 13 1 C13 2.65 13 4.3 13 6 C7.57689095 5.56615128 4.29855944 4.35497322 0 1 C0 0.67 0 0.34 0 0 Z " fill="#A3C4D3" transform="translate(419,432)"/>
<path d="M0 0 C0.74507812 0.00451172 1.49015625 0.00902344 2.2578125 0.01367188 C4.0885764 0.02540754 5.91929873 0.0433415 7.75 0.0625 C7.75 0.3925 7.75 0.7225 7.75 1.0625 C5.11 1.3925 2.47 1.7225 -0.25 2.0625 C-0.25 2.7225 -0.25 3.3825 -0.25 4.0625 C-5.53497409 5.11949482 -5.53497409 5.11949482 -8.25 5.0625 C-10.75 3.125 -10.75 3.125 -12.25 1.0625 C-8.15996141 -0.08732602 -4.21822949 -0.04844256 0 0 Z " fill="#1A3A5A" transform="translate(792.25,423.9375)"/>
<path d="M0 0 C0.33 0 0.66 0 1 0 C1.1953125 1.98567708 1.390625 3.97135417 1.5859375 5.95703125 C1.92665391 8.29988142 1.92665391 8.29988142 4 11 C4.125 13.4375 4.125 13.4375 4 16 C4 17.32 4 18.64 4 20 C3.34 20 2.68 20 2 20 C-0.56780471 16.1584024 -0.22688882 12.1860825 -0.125 7.75 C-0.11597656 7.00492187 -0.10695313 6.25984375 -0.09765625 5.4921875 C-0.07418358 3.66131941 -0.03831525 1.83061762 0 0 Z " fill="#A0C1CF" transform="translate(763,472)"/>
<path d="M0 0 C1.32 0.66 2.64 1.32 4 2 C4 4.97 4 7.94 4 11 C2.02 11.99 2.02 11.99 0 13 C-1 12 -1 12 -1.125 8.1875 C-1.09401243 5.31082025 -0.91742334 2.75227001 0 0 Z " fill="#A3C7D3" transform="translate(451,468)"/>
<path d="M0 0 C0 0.33 0 0.66 0 1 C-1.21236328 1.05607422 -1.21236328 1.05607422 -2.44921875 1.11328125 C-3.51785156 1.17902344 -4.58648438 1.24476563 -5.6875 1.3125 C-6.74324219 1.37050781 -7.79898438 1.42851562 -8.88671875 1.48828125 C-12.24294101 2.03993133 -14.18132333 3.15872785 -17 5 C-17.66 5 -18.32 5 -19 5 C-19 5.66 -19 6.32 -19 7 C-20.65 6.67 -22.3 6.34 -24 6 C-23.34 5.67 -22.68 5.34 -22 5 C-22 4.34 -22 3.68 -22 3 C-14.49783264 -0.0517291 -8.05364285 -0.33608711 0 0 Z " fill="#72A489" transform="translate(714,223)"/>
<path d="M0 0 C0.66 0 1.32 0 2 0 C1.6083965 5.95507399 0.62875405 10.62819824 -2 16 C-4 13 -4 13 -3.6875 10.875 C-3 9 -3 9 -2 8 C-2.020625 7.21625 -2.04125 6.4325 -2.0625 5.625 C-2 3 -2 3 0 0 Z " fill="#A2C6D6" transform="translate(636,213)"/>
<path d="M0 0 C1 3 1 3 0.00390625 5.48046875 C-0.47175781 6.37378906 -0.94742187 7.26710938 -1.4375 8.1875 C-1.91058594 9.08855469 -2.38367187 9.98960937 -2.87109375 10.91796875 C-3.24363281 11.60503906 -3.61617187 12.29210937 -4 13 C-4.66 12.34 -5.32 11.68 -6 11 C-6 9.68 -6 8.36 -6 7 C-5.34 7 -4.68 7 -4 7 C-4 5.35 -4 3.7 -4 2 C-2.68 1.34 -1.36 0.68 0 0 Z " fill="#0B2A40" transform="translate(1064,505)"/>
<path d="M0 0 C3.42436208 2.9836935 3.57781494 5.5248384 4 10 C2.02 10.33 0.04 10.66 -2 11 C-3.13643966 7.59068103 -2.86747764 6.99664544 -1.5625 3.8125 C-1.13130859 2.73935547 -1.13130859 2.73935547 -0.69140625 1.64453125 C-0.46324219 1.10183594 -0.23507812 0.55914062 0 0 Z " fill="#87ACB0" transform="translate(1066,502)"/>
<path d="M0 0 C6.6 0 13.2 0 20 0 C19.34 1.32 18.68 2.64 18 4 C15.36 4 12.72 4 10 4 C10 3.01 10 2.02 10 1 C6.7 1 3.4 1 0 1 C0 0.67 0 0.34 0 0 Z " fill="#A0C5CE" transform="translate(904,450)"/>
<path d="M0 0 C0.66 0.33 1.32 0.66 2 1 C1.67 1.99 1.34 2.98 1 4 C0.01 4.33 -0.98 4.66 -2 5 C-2 4.34 -2 3.68 -2 3 C-3.32 3 -4.64 3 -6 3 C-6.33 3.99 -6.66 4.98 -7 6 C-7.99 5.67 -8.98 5.34 -10 5 C-10.33 5.66 -10.66 6.32 -11 7 C-11.33 6.34 -11.66 5.68 -12 5 C-14.32156597 4.59270772 -16.6568787 4.25561323 -19 4 C-19 3.67 -19 3.34 -19 3 C-17.87980469 2.86722656 -16.75960938 2.73445312 -15.60546875 2.59765625 C-14.13279271 2.41943431 -12.66013753 2.24103989 -11.1875 2.0625 C-10.44951172 1.97548828 -9.71152344 1.88847656 -8.95117188 1.79882812 C-5.83266879 1.41783454 -2.98891878 0.99630626 0 0 Z " fill="#83A4A8" transform="translate(1043,529)"/>
<path d="M0 0 C0.33 0 0.66 0 1 0 C1 2.64 1 5.28 1 8 C1.66 8 2.32 8 3 8 C2.67 13.28 2.34 18.56 2 24 C1.67 24 1.34 24 1 24 C-0.29235715 19.08497242 -0.11135517 14.22709898 -0.0625 9.1875 C-0.05798828 8.30384766 -0.05347656 7.42019531 -0.04882812 6.50976562 C-0.03709866 4.33981441 -0.01916495 2.16989828 0 0 Z " fill="#1B3C58" transform="translate(475,469)"/>
<path d="M0 0 C1.04114833 3.37364344 1.04037514 6.35935388 0.9375 9.875 C0.88805411 14.39655188 1.34462952 17.75811314 3 22 C3.125 24.875 3.125 24.875 3 27 C-1.21648918 21.86688274 -1.16004507 17.42667968 -1.125 10.9375 C-1.12886719 10.21755859 -1.13273438 9.49761719 -1.13671875 8.75585938 C-1.13080799 5.57291361 -1.01350713 3.04052138 0 0 Z " fill="#7DAD95" transform="translate(675,245)"/>
<path d="M0 0 C-2.625 6.75 -2.625 6.75 -6 9 C-6.66 6.69 -7.32 4.38 -8 2 C-5.44123378 -0.55876622 -3.37797483 -1.68898741 0 0 Z " fill="#A5C6D4" transform="translate(648,201)"/>
<path d="M0 0 C1.32 0.33 2.64 0.66 4 1 C-0.08806189 4.84616474 -3.40717158 7.63589551 -9 9 C-7.84826645 6.53199953 -6.95216435 4.95216435 -5 3 C-4.319375 2.835 -3.63875 2.67 -2.9375 2.5 C-2.298125 2.335 -1.65875 2.17 -1 2 C-0.67 1.34 -0.34 0.68 0 0 Z " fill="#102D49" transform="translate(1053,520)"/>
<path d="M0 0 C4.55015893 1.51671964 6.50057264 5.16891053 9 9 C8.01 9.495 8.01 9.495 7 10 C6.34786708 12.02463255 6.34786708 12.02463255 6 14 C5.34 14 4.68 14 4 14 C3.855625 12.7625 3.71125 11.525 3.5625 10.25 C3.21311498 7.43495501 2.79620634 4.7298503 2 2 C1.34 2 0.68 2 0 2 C0 1.34 0 0.68 0 0 Z " fill="#9BC1CD" transform="translate(414,456)"/>
<path d="M0 0 C1.32 0.66 2.64 1.32 4 2 C2.35 3.98 0.7 5.96 -1 8 C-3.46800047 6.84826645 -5.04783565 5.95216435 -7 4 C-7 3.01 -7 2.02 -7 1 C-6.34 1 -5.68 1 -5 1 C-5 1.99 -5 2.98 -5 4 C-3.68 4 -2.36 4 -1 4 C-0.67 2.68 -0.34 1.36 0 0 Z " fill="#0F2E49" transform="translate(746,376)"/>
<path d="M0 0 C0.66 0.66 1.32 1.32 2 2 C2.99 1.67 3.98 1.34 5 1 C5.625 2.8125 5.625 2.8125 6 5 C5.01 6.485 5.01 6.485 4 8 C3.01 8 2.02 8 1 8 C0.67 7.01 0.34 6.02 0 5 C-0.99 6.485 -0.99 6.485 -2 8 C-2.66 8 -3.32 8 -4 8 C-2.66666667 5.33333333 -1.33333333 2.66666667 0 0 Z " fill="#91B4B8" transform="translate(842,504)"/>
<path d="M0 0 C0.598125 0.309375 1.19625 0.61875 1.8125 0.9375 C4.08956772 2.10209704 4.08956772 2.10209704 7 3 C8.6875 6.0625 8.6875 6.0625 10 9 C10.66 9 11.32 9 12 9 C12 9.99 12 10.98 12 12 C9 12 9 12 7.24609375 10.390625 C6.64925781 9.68421875 6.05242187 8.9778125 5.4375 8.25 C4.83808594 7.55390625 4.23867188 6.8578125 3.62109375 6.140625 C2.11754827 4.15522037 1.02421999 2.2624561 0 0 Z " fill="#9EC1D3" transform="translate(431,439)"/>
<path d="M0 0 C0.33 0.66 0.66 1.32 1 2 C1.66 2.33 2.32 2.66 3 3 C2.67 5.97 2.34 8.94 2 12 C-0.0625 10.4375 -0.0625 10.4375 -2 8 C-1.67857143 1.67857143 -1.67857143 1.67857143 0 0 Z " fill="#A1C5D3" transform="translate(445,448)"/>
<path d="M0 0 C3.96 0.99 3.96 0.99 8 2 C6.02579865 4.52259061 5.03254358 4.9929808 1.8125 5.6875 C0.4203125 5.8421875 0.4203125 5.8421875 -1 6 C-1.33 5.01 -1.66 4.02 -2 3 C-1.34 2.01 -0.68 1.02 0 0 Z " fill="#A1C5D4" transform="translate(502,424)"/>
<path d="M0 0 C1.1055189 0.93590504 2.20935453 1.87379858 3.3125 2.8125 C3.92738281 3.33457031 4.54226563 3.85664063 5.17578125 4.39453125 C8.66719556 7.46727489 8.66719556 7.46727489 10 9 C9.6875 11.1875 9.6875 11.1875 9 13 C8.34 11.68 7.68 10.36 7 9 C5.02 9 3.04 9 1 9 C1.20625 8.401875 1.4125 7.80375 1.625 7.1875 C2.30671915 4.71549154 2.30671915 4.71549154 0 2 C0 1.34 0 0.68 0 0 Z " fill="#A4C5D4" transform="translate(648,295)"/>
<path d="M0 0 C0.33 1.65 0.66 3.3 1 5 C-2.3 4.34 -5.6 3.68 -9 3 C-8.67 2.01 -8.34 1.02 -8 0 C-5.13822943 -1.43088528 -3.06624227 -0.59991697 0 0 Z " fill="#9EC0CE" transform="translate(815,178)"/>
<path d="M0 0 C1.27617188 0.00483398 1.27617188 0.00483398 2.578125 0.00976562 C3.46757813 0.01814453 4.35703125 0.02652344 5.2734375 0.03515625 C6.170625 0.03966797 7.0678125 0.04417969 7.9921875 0.04882812 C10.21100398 0.06063034 12.42968768 0.0770947 14.6484375 0.09765625 C14.6484375 0.75765625 14.6484375 1.41765625 14.6484375 2.09765625 C13.57916016 2.08025391 13.57916016 2.08025391 12.48828125 2.0625 C3.32963102 1.70658989 3.32963102 1.70658989 -5.3515625 4.09765625 C-5.6815625 3.10765625 -6.0115625 2.11765625 -6.3515625 1.09765625 C-4.00303722 -0.07660639 -2.61382185 -0.01742548 0 0 Z " fill="#91B5B4" transform="translate(1107.3515625,531.90234375)"/>
<path d="M0 0 C0 1.66666667 0 3.33333333 0 5 C-1.76949612 5.50471197 -3.54065223 6.00360685 -5.3125 6.5 C-6.79169922 6.91765625 -6.79169922 6.91765625 -8.30078125 7.34375 C-11 8 -11 8 -14 8 C-14.33 8.66 -14.66 9.32 -15 10 C-15.66 9.34 -16.32 8.68 -17 8 C-16.19175781 7.67386719 -15.38351562 7.34773437 -14.55078125 7.01171875 C-12.94783203 6.35623047 -12.94783203 6.35623047 -11.3125 5.6875 C-10.25675781 5.25824219 -9.20101562 4.82898438 -8.11328125 4.38671875 C-5.2462191 3.10967099 -2.64909614 1.67595878 0 0 Z " fill="#84A7B7" transform="translate(825,523)"/>
<path d="M0 0 C0.66 0 1.32 0 2 0 C5.05760323 3.05760323 4 6.81712309 4 11 C2.0625 10.375 2.0625 10.375 0 9 C-0.75 5.875 -0.75 5.875 -1 3 C-0.34 3 0.32 3 1 3 C0.67 2.01 0.34 1.02 0 0 Z " fill="#A1C6CD" transform="translate(481,509)"/>
<path d="M0 0 C2.97 0 5.94 0 9 0 C8.67 0.66 8.34 1.32 8 2 C6.02 2 4.04 2 2 2 C2 4.64 2 7.28 2 10 C1.34 10 0.68 10 0 10 C0 6.7 0 3.4 0 0 Z " fill="#FEFEFB" transform="translate(814,567)"/>
<path d="M0 0 C2.97 0 5.94 0 9 0 C8.67 0.66 8.34 1.32 8 2 C6.02 2 4.04 2 2 2 C2 4.64 2 7.28 2 10 C1.34 10 0.68 10 0 10 C0 6.7 0 3.4 0 0 Z " fill="#FEFEFC" transform="translate(603,567)"/>
<path d="M0 0 C-0.33 1.65 -0.66 3.3 -1 5 C-1.66 5 -2.32 5 -3 5 C-3 4.34 -3 3.68 -3 3 C-3.66 3 -4.32 3 -5 3 C-5 3.66 -5 4.32 -5 5 C-6.32 4.34 -7.64 3.68 -9 3 C-7 0 -7 0 -5.0625 -0.75 C-3 -1 -3 -1 0 0 Z " fill="#A2C6CF" transform="translate(432,522)"/>
<path d="M0 0 C0.66 0.33 1.32 0.66 2 1 C1.505 1.391875 1.01 1.78375 0.5 2.1875 C-1.26914795 3.92108918 -1.26914795 3.92108918 -0.9375 6.4375 C-1 9 -1 9 -2.875 11.3125 C-5 13 -5 13 -7 13 C-7 11 -7 11 -5 9 C-4.64587656 7.67203709 -4.31478446 6.33783393 -4 5 C-2.36363636 1.18181818 -2.36363636 1.18181818 0 0 Z " fill="#042242" transform="translate(838,504)"/>
<path d="M0 0 C1.99097846 2.98646769 2.94124926 5.59687262 4 9 C2.02 9.99 2.02 9.99 0 11 C-0.66 10.34 -1.32 9.68 -2 9 C-1.7578125 6.8359375 -1.7578125 6.8359375 -1.125 4.375 C-0.92132812 3.55773437 -0.71765625 2.74046875 -0.5078125 1.8984375 C-0.34023438 1.27195312 -0.17265625 0.64546875 0 0 Z " fill="#143351" transform="translate(762,485)"/>
<path d="M0 0 C6.75 0.75 6.75 0.75 9 3 C9 3.99 9 4.98 9 6 C7.02 6.66 5.04 7.32 3 8 C2.87625 7.195625 2.7525 6.39125 2.625 5.5625 C2.315625 4.2940625 2.315625 4.2940625 2 3 C1.34 2.67 0.68 2.34 0 2 C0 1.34 0 0.68 0 0 Z " fill="#A2C4CB" transform="translate(717,364)"/>
<path d="M0 0 C1.9814066 2.9721099 2.7434556 4.49389321 3 8 C1.5625 10.3125 1.5625 10.3125 0 12 C0 10.68 0 9.36 0 8 C-1.98 8.99 -1.98 8.99 -4 10 C-2.66666667 6.66666667 -1.33333333 3.33333333 0 0 Z " fill="#93B5C1" transform="translate(850,276)"/>
<path d="M0 0 C2 1 2 1 3 3 C0.69 4.65 -1.62 6.3 -4 8 C-4.66 7.67 -5.32 7.34 -6 7 C-6 6.01 -6 5.02 -6 4 C-3 1.8125 -3 1.8125 0 0 Z " fill="#468E7C" transform="translate(761,228)"/>
<path d="M0 0 C1.18851563 0.10183594 2.37703125 0.20367188 3.6015625 0.30859375 C4.51679687 0.39238281 5.43203125 0.47617187 6.375 0.5625 C6.045 1.2225 5.715 1.8825 5.375 2.5625 C1.085 2.5625 -3.205 2.5625 -7.625 2.5625 C-7.955 1.9025 -8.285 1.2425 -8.625 0.5625 C-5.68113377 -0.90943312 -3.25109964 -0.28686173 0 0 Z " fill="#102F4B" transform="translate(527.625,530.4375)"/>
<path d="M0 0 C2.625 0.9375 2.625 0.9375 5 2 C4.01 3.485 4.01 3.485 3 5 C2.34 5 1.68 5 1 5 C0.67 5.99 0.34 6.98 0 8 C-1.32 7.01 -2.64 6.02 -4 5 C-2.25 1.125 -2.25 1.125 0 0 Z " fill="#90B7C4" transform="translate(767,328)"/>
<path d="M0 0 C2.97 0.495 2.97 0.495 6 1 C5.06725891 2.12894876 4.12859878 3.25300876 3.1875 4.375 C2.66542969 5.00148438 2.14335938 5.62796875 1.60546875 6.2734375 C0 8 0 8 -3 10 C-3.33 9.01 -3.66 8.02 -4 7 C-3.34 7 -2.68 7 -2 7 C-1.67 6.01 -1.34 5.02 -1 4 C-0.34 3.67 0.32 3.34 1 3 C0.67 2.01 0.34 1.02 0 0 Z " fill="#133352" transform="translate(833,294)"/>
<path d="M0 0 C2 2 2 2 2.265625 4.49609375 C2.26046875 5.46675781 2.2553125 6.43742188 2.25 7.4375 C2.25515625 8.40558594 2.2603125 9.37367188 2.265625 10.37109375 C2 13 2 13 0 16 C-0.83830296 13.07924603 -1.13527361 10.47335217 -1.125 7.4375 C-1.12757813 6.67308594 -1.13015625 5.90867188 -1.1328125 5.12109375 C-1 3 -1 3 0 0 Z M0 6 C0 7.98 0 9.96 0 12 C0.33 12 0.66 12 1 12 C1 10.02 1 8.04 1 6 C0.67 6 0.34 6 0 6 Z " fill="#237365" transform="translate(811,248)"/>
<path d="M0 0 C3.375 0.25 3.375 0.25 7 1 C8.4375 3.0625 8.4375 3.0625 9 5 C7 6 7 6 4.5 5.3125 C1.70348499 3.84432962 1.06588569 2.90696099 0 0 Z " fill="#9FC1CC" transform="translate(564,433)"/>
<path d="M0 0 C0.66 0.33 1.32 0.66 2 1 C1.82374165 3.37948772 1.30280227 4.70225849 -0.40234375 6.37890625 C-1.90649092 7.62115486 -3.45129851 8.81376056 -5 10 C-5.66 9.34 -6.32 8.68 -7 8 C-4.69 5.36 -2.38 2.72 0 0 Z " fill="#92C8C3" transform="translate(769,313)"/>
<path d="M0 0 C0.66 1.32 1.32 2.64 2 4 C1.360625 4.268125 0.72125 4.53625 0.0625 4.8125 C-2.33131686 5.88667752 -2.33131686 5.88667752 -3 9 C-5.0625 9.6875 -5.0625 9.6875 -7 10 C-5.6062718 5.56541027 -3.39417765 3.12621626 0 0 Z " fill="#9CBED5" transform="translate(670,214)"/>
<path d="M0 0 C1.27133789 0.00966797 1.27133789 0.00966797 2.56835938 0.01953125 C3.8899707 0.04466797 3.8899707 0.04466797 5.23828125 0.0703125 C6.57729492 0.08384766 6.57729492 0.08384766 7.94335938 0.09765625 C10.14610439 0.12121502 12.34830713 0.15410921 14.55078125 0.1953125 C14.55078125 0.5253125 14.55078125 0.8553125 14.55078125 1.1953125 C11.91078125 1.1953125 9.27078125 1.1953125 6.55078125 1.1953125 C6.55078125 2.1853125 6.55078125 3.1753125 6.55078125 4.1953125 C5.56078125 3.8653125 4.57078125 3.5353125 3.55078125 3.1953125 C3.55078125 2.8653125 3.55078125 2.5353125 3.55078125 2.1953125 C-0.07921875 2.1953125 -3.70921875 2.1953125 -7.44921875 2.1953125 C-4.2960709 0.09321393 -3.58818794 -0.0481636 0 0 Z " fill="#89AABF" transform="translate(697.44921875,201.8046875)"/>
<path d="M0 0 C1.98 0.495 1.98 0.495 4 1 C3.67 1.66 3.34 2.32 3 3 C3.804375 3.78375 4.60875 4.5675 5.4375 5.375 C8 8 8 8 9 10 C4.62140745 9.49477778 2.18348776 6.82172778 -1 4 C-0.67 2.68 -0.34 1.36 0 0 Z " fill="#A2C3D3" transform="translate(731,340)"/>
<path d="M0 0 C0.33 0.99 0.66 1.98 1 3 C1.66 3 2.32 3 3 3 C2.67 2.01 2.34 1.02 2 0 C2.99 0.33 3.98 0.66 5 1 C4.67 2.32 4.34 3.64 4 5 C3.34 5 2.68 5 2 5 C1.67 5.66 1.34 6.32 1 7 C-0.65 5.02 -2.3 3.04 -4 1 C-2.68 0.67 -1.36 0.34 0 0 Z " fill="#133354" transform="translate(656,297)"/>
<path d="M0 0 C0.66 0.33 1.32 0.66 2 1 C1.34 3.64 0.68 6.28 0 9 C-1.65 9.33 -3.3 9.66 -5 10 C-3.35 6.7 -1.7 3.4 0 0 Z " fill="#153450" transform="translate(828,270)"/>
<path d="M0 0 C1.32 0.66 2.64 1.32 4 2 C2.75023244 5.65316671 2.32901247 6.78065836 -1 9 C-1.80967438 6.08517222 -2.21845993 4.53886783 -1.0625 1.6875 C-0.711875 1.130625 -0.36125 0.57375 0 0 Z " fill="#0F2D51" transform="translate(574,504)"/>
<path d="M0 0 C2.00720923 0.28674418 4.0085944 0.61866701 6 1 C5.34 2.65 4.68 4.3 4 6 C2.68 5.67 1.36 5.34 0 5 C-0.5625 3.0625 -0.5625 3.0625 -1 1 C-0.67 0.67 -0.34 0.34 0 0 Z " fill="#A3C7D3" transform="translate(482,440)"/>
<path d="M0 0 C0.99 0.33 1.98 0.66 3 1 C3 1.66 3 2.32 3 3 C2.34 3 1.68 3 1 3 C1 3.66 1 4.32 1 5 C0.34 5 -0.32 5 -1 5 C-1 5.66 -1 6.32 -1 7 C-2.32 7.33 -3.64 7.66 -5 8 C-3.8141763 4.62496331 -2.72426311 2.35277269 0 0 Z " fill="#6FA684" transform="translate(684,232)"/>
<path d="M0 0 C1 3 1 3 0.22265625 4.82421875 C-0.8515625 6.54947917 -1.92578125 8.27473958 -3 10 C-4 7 -4 7 -3 4 C-3.66 4 -4.32 4 -5 4 C-4.67 3.01 -4.34 2.02 -4 1 C-2 0 -2 0 0 0 Z " fill="#97BCC8" transform="translate(559,489)"/>
<path d="M0 0 C1.65 0 3.3 0 5 0 C5.33 0.66 5.66 1.32 6 2 C3.82575883 4.50037734 2.26954202 5.43628586 -1 6 C-1.66 5.01 -2.32 4.02 -3 3 C-2.34 3 -1.68 3 -1 3 C-0.67 2.01 -0.34 1.02 0 0 Z " fill="#0E2B52" transform="translate(948,442)"/>
<path d="M0 0 C-1.65 1.98 -3.3 3.96 -5 6 C-6.32 4.68 -7.64 3.36 -9 2 C-3.375 -1.125 -3.375 -1.125 0 0 Z " fill="#98C0CA" transform="translate(764,337)"/>
<path d="M0 0 C-0.33 0.99 -0.66 1.98 -1 3 C-2.65 3 -4.3 3 -6 3 C-6 2.01 -6 1.02 -6 0 C-8.64 0 -11.28 0 -14 0 C-14 -0.33 -14 -0.66 -14 -1 C-4.58997722 -2.51708428 -4.58997722 -2.51708428 0 0 Z " fill="#93B8BA" transform="translate(902,533)"/>
<path d="M0 0 C4 4.625 4 4.625 4 8 C0 8 0 8 -2 7 C-1.34 4.69 -0.68 2.38 0 0 Z " fill="#8EB3BD" transform="translate(924,512)"/>
<path d="M0 0 C2.52588702 2.36292656 3.88820837 3.66462511 5 7 C4.01 7.33 3.02 7.66 2 8 C0 6 0 6 -1 4 C-1.66 4 -2.32 4 -3 4 C-3 3.34 -3 2.68 -3 2 C-2.01 1.34 -1.02 0.68 0 0 Z " fill="#103150" transform="translate(948,508)"/>
<path d="M0 0 C2.5 1.375 2.5 1.375 5 3 C5 3.66 5 4.32 5 5 C6.32 5.33 7.64 5.66 9 6 C7.02 6.99 7.02 6.99 5 8 C4.67 6.68 4.34 5.36 4 4 C2.02 4.99 0.04 5.98 -2 7 C-1.34 4.69 -0.68 2.38 0 0 Z " fill="#84A7B2" transform="translate(1008,490)"/>
<path d="M0 0 C1.0326802 2.78823655 1.04509293 3.8677274 0.0625 6.75 C-0.288125 7.4925 -0.63875 8.235 -1 9 C-1.99 8.67 -2.98 8.34 -4 8 C-3.67 6.68 -3.34 5.36 -3 4 C-3.66 4 -4.32 4 -5 4 C-5 3.34 -5 2.68 -5 2 C-3.35 1.34 -1.7 0.68 0 0 Z " fill="#A2C6D6" transform="translate(477,457)"/>
<path d="M0 0 C0.99 0 1.98 0 3 0 C5.42857143 6.28571429 5.42857143 6.28571429 4 10 C1.2027092 7.93243723 0.97307727 6.85559629 0.3125 3.3125 C0.209375 2.219375 0.10625 1.12625 0 0 Z " fill="#A0C4D0" transform="translate(851,218)"/>
<path d="M0 0 C0.33 0.66 0.66 1.32 1 2 C1.66 2.33 2.32 2.66 3 3 C-0.78187881 4.83691257 -2.94568308 5.15837626 -7 4 C-7 3.34 -7 2.68 -7 2 C-4.69 1.34 -2.38 0.68 0 0 Z " fill="#A1C5D2" transform="translate(551,530)"/>
<path d="M0 0 C1.32 0.66 2.64 1.32 4 2 C3.67 3.98 3.34 5.96 3 8 C1.68 7.67 0.36 7.34 -1 7 C-0.67 4.69 -0.34 2.38 0 0 Z " fill="#91B7BA" transform="translate(929,452)"/>
<path d="M0 0 C0.66 1.32 1.32 2.64 2 4 C0.8125 5.5 0.8125 5.5 -1 7 C-3.6875 7.1875 -3.6875 7.1875 -6 7 C-4.02 4.69 -2.04 2.38 0 0 Z " fill="#153457" transform="translate(492,438)"/>
<path d="M0 0 C0.66 0 1.32 0 2 0 C2.33 0.99 2.66 1.98 3 3 C2.01 3.33 1.02 3.66 0 4 C-1.20882096 6.00016466 -1.20882096 6.00016466 -2 8 C-2.66 7.67 -3.32 7.34 -4 7 C-4 6.01 -4 5.02 -4 4 C-3.34 4 -2.68 4 -2 4 C-2 3.34 -2 2.68 -2 2 C-1.34 2 -0.68 2 0 2 C0 1.34 0 0.68 0 0 Z " fill="#3A8C79" transform="translate(757,321)"/>
<path d="M0 0 C0.99 0.33 1.98 0.66 3 1 C0.69 3.31 -1.62 5.62 -4 8 C-4.99 7.67 -5.98 7.34 -7 7 C-7 6.34 -7 5.68 -7 5 C-2.61538462 2 -2.61538462 2 0 2 C0 1.34 0 0.68 0 0 Z " fill="#3A8879" transform="translate(780,300)"/>
<path d="M0 0 C0.4125 0.474375 0.825 0.94875 1.25 1.4375 C3.182185 3.16266518 4.48192275 3.56584875 7 4 C5.68 5.32 4.36 6.64 3 8 C1.35 5.69 -0.3 3.38 -2 1 C-1.34 0.67 -0.68 0.34 0 0 Z " fill="#143251" transform="translate(644,285)"/>
<path d="M0 0 C0.33 0.66 0.66 1.32 1 2 C3.02463255 2.65213292 3.02463255 2.65213292 5 3 C4.67 3.99 4.34 4.98 4 6 C1.4375 7.1875 1.4375 7.1875 -1 8 C-0.67 5.36 -0.34 2.72 0 0 Z " fill="#A4C6CF" transform="translate(641,288)"/>
<path d="M0 0 C0.99 0.33 1.98 0.66 3 1 C2.34 2.65 1.68 4.3 1 6 C-1.31 5.67 -3.62 5.34 -6 5 C-2.25 1.125 -2.25 1.125 0 0 Z " fill="#93B7CA" transform="translate(678,208)"/>
<path d="M0 0 C0 0.66 0 1.32 0 2 C0.66 2 1.32 2 2 2 C2 2.99 2 3.98 2 5 C-1.3 4.01 -4.6 3.02 -8 2 C-4.77208445 -0.1519437 -3.71599191 -0.20086443 0 0 Z " fill="#1F3F59" transform="translate(720,201)"/>
<path d="M0 0 C0.33 0.99 0.66 1.98 1 3 C-0.65 3.66 -2.3 4.32 -4 5 C-5.32 3.68 -6.64 2.36 -8 1 C-5.29120665 -0.35439668 -2.99066732 -0.06501451 0 0 Z " fill="#123049" transform="translate(1012,522)"/>
<path d="M0 0 C0.99 0.33 1.98 0.66 3 1 C4.1875 4.5625 4.1875 4.5625 5 8 C4.38125 7.649375 3.7625 7.29875 3.125 6.9375 C2.073125 6.4734375 2.073125 6.4734375 1 6 C0.01 6.495 0.01 6.495 -1 7 C-0.67 4.69 -0.34 2.38 0 0 Z " fill="#8BAEBA" transform="translate(740,496)"/>
<path d="M0 0 C0.33 0 0.66 0 1 0 C1.27672202 1.91299138 1.52042815 3.83077936 1.75 5.75 C1.88921875 6.81734375 2.0284375 7.8846875 2.171875 8.984375 C2 12 2 12 -2 16 C-1.34 10.72 -0.68 5.44 0 0 Z " fill="#163552" transform="translate(426,474)"/>
<path d="M0 0 C1.32 0.66 2.64 1.32 4 2 C3.67 2.66 3.34 3.32 3 4 C1.576875 4.2165625 1.576875 4.2165625 0.125 4.4375 C-3.11003166 5.0198057 -4.02934054 5.48193513 -6 8 C-6.66 7.67 -7.32 7.34 -8 7 C-5.36 4.69 -2.72 2.38 0 0 Z " fill="#1A3856" transform="translate(762,433)"/>
<path d="M0 0 C0.99 0.495 0.99 0.495 2 1 C2.89093449 4.64473199 3.23666047 7.42742531 2 11 C1.34 11 0.68 11 0 11 C0 7.37 0 3.74 0 0 Z " fill="#3B9271" transform="translate(744,324)"/>
<path d="M0 0 C0.33 0.99 0.66 1.98 1 3 C0.195625 3.61875 -0.60875 4.2375 -1.4375 4.875 C-4.03874519 6.74164041 -4.03874519 6.74164041 -5 9 C-6.32 8.67 -7.64 8.34 -9 8 C-6.03 5.36 -3.06 2.72 0 0 Z " fill="#90B3C5" transform="translate(836,298)"/>
<path d="M0 0 C1.27875 0.103125 2.5575 0.20625 3.875 0.3125 C4.95394531 0.39951172 4.95394531 0.39951172 6.0546875 0.48828125 C8 1 8 1 10 4 C7.8125 4.8125 7.8125 4.8125 5 5 C2.1875 2.5625 2.1875 2.5625 0 0 Z " fill="#A5C5D5" transform="translate(735,184)"/>
<path d="M0 0 C0 0.33 0 0.66 0 1 C-1.98 1 -3.96 1 -6 1 C-6.33 1.99 -6.66 2.98 -7 4 C-9.64 3.67 -12.28 3.34 -15 3 C-11.00349459 -0.99650541 -5.31261102 -0.09004425 0 0 Z " fill="#2C4C63" transform="translate(781,178)"/>
<path d="M0 0 C2.13093906 1.06546953 3.36587557 2.29159719 5 4 C3.02 4.66 1.04 5.32 -1 6 C-1.66 5.34 -2.32 4.68 -3 4 C-2.01 2.68 -1.02 1.36 0 0 Z " fill="#133154" transform="translate(555,522)"/>
<path d="M0 0 C1.98 1.65 3.96 3.3 6 5 C5.01 5.99 4.02 6.98 3 8 C0.37613513 4.93882432 0 4.26826873 0 0 Z " fill="#93B5C2" transform="translate(490,516)"/>
<path d="M0 0 C0 3.69418201 -1.28179295 5.77836178 -3 9 C-4.65 8.67 -6.3 8.34 -8 8 C-6.71034824 6.62437146 -5.37310707 5.29233607 -4 4 C-3.34 4 -2.68 4 -2 4 C-1.34 2.68 -0.68 1.36 0 0 Z " fill="#88AABA" transform="translate(834,515)"/>
<path d="M0 0 C0.66 1.32 1.32 2.64 2 4 C-0.31 4.33 -2.62 4.66 -5 5 C-5 5.66 -5 6.32 -5 7 C-6.32 6.67 -7.64 6.34 -9 6 C-6.03 4.02 -3.06 2.04 0 0 Z " fill="#8CAFC4" transform="translate(430,517)"/>
<path d="M0 0 C1.125 1.75 1.125 1.75 2 4 C1.125 6.25 1.125 6.25 0 8 C-1.65 7.67 -3.3 7.34 -5 7 C-3.35 4.69 -1.7 2.38 0 0 Z " fill="#95B6C9" transform="translate(442,504)"/>
<path d="M0 0 C0.66 0.33 1.32 0.66 2 1 C2 2.32 2 3.64 2 5 C1.34 5 0.68 5 0 5 C-0.33 6.32 -0.66 7.64 -1 9 C-1.66 8.01 -2.32 7.02 -3 6 C-3.33 5.67 -3.66 5.34 -4 5 C-2.68 3.35 -1.36 1.7 0 0 Z " fill="#8FB3C3" transform="translate(774,453)"/>
<path d="M0 0 C0 0.66 0 1.32 0 2 C-5.28 1.67 -10.56 1.34 -16 1 C-16 0.67 -16 0.34 -16 0 C-14.08416353 -0.1958009 -12.16727461 -0.38132214 -10.25 -0.5625 C-8.64898438 -0.71912109 -8.64898438 -0.71912109 -7.015625 -0.87890625 C-4.35858796 -0.98560074 -2.50039428 -0.81930395 0 0 Z " fill="#91B3C2" transform="translate(542,423)"/>
<path d="M0 0 C1.32 1.65 2.64 3.3 4 5 C3.01 6.485 3.01 6.485 2 8 C0.68 6.35 -0.64 4.7 -2 3 C-1 1 -1 1 0 0 Z " fill="#8CACB6" transform="translate(994,512)"/>
<path d="M0 0 C0.66 0.99 1.32 1.98 2 3 C1.67 3.66 1.34 4.32 1 5 C-0.65 5 -2.3 5 -4 5 C-4 5.66 -4 6.32 -4 7 C-4.66 6.67 -5.32 6.34 -6 6 C-3.375 1.125 -3.375 1.125 0 0 Z " fill="#13304C" transform="translate(1046,498)"/>
<path d="M0 0 C0 0.66 0 1.32 0 2 C0.33 2.99 0.66 3.98 1 5 C-2 5 -2 5 -4.6875 2.5 C-5.450625 1.675 -6.21375 0.85 -7 0 C-2.25 -1.125 -2.25 -1.125 0 0 Z " fill="#112F4F" transform="translate(646,474)"/>
<path d="M0 0 C0.66 0.33 1.32 0.66 2 1 C2 2.65 2 4.3 2 6 C0.02 6.99 -1.96 7.98 -4 9 C-2.80100302 5.9168649 -1.52299523 2.93720508 0 0 Z " fill="#13334F" transform="translate(747,449)"/>
<path d="M0 0 C1.32 0.66 2.64 1.32 4 2 C0.535 4.97 0.535 4.97 -3 8 C-3 7.01 -3 6.02 -3 5 C-2.34 5 -1.68 5 -1 5 C-0.67 3.35 -0.34 1.7 0 0 Z " fill="#3F8C7C" transform="translate(763,315)"/>
<path d="M0 0 C0.66 0.33 1.32 0.66 2 1 C1.67 1.66 1.34 2.32 1 3 C2.32 3.66 3.64 4.32 5 5 C5 5.66 5 6.32 5 7 C4.01 7.33 3.02 7.66 2 8 C0.4375 5.6875 0.4375 5.6875 -1 3 C-0.67 2.01 -0.34 1.02 0 0 Z " fill="#102E4D" transform="translate(680,505)"/>
<path d="M0 0 C-0.1875 1.875 -0.1875 1.875 -1 4 C-3.5625 5.25 -3.5625 5.25 -6 6 C-5.6875 4.125 -5.6875 4.125 -5 2 C-2 0 -2 0 0 0 Z " fill="#99BECD" transform="translate(416,497)"/>
<path d="M0 0 C0.99 0 1.98 0 3 0 C3.33 0.99 3.66 1.98 4 3 C2.625 4.5 2.625 4.5 1 6 C0.34 6 -0.32 6 -1 6 C-1.33 4.68 -1.66 3.36 -2 2 C-1.34 2 -0.68 2 0 2 C0 1.34 0 0.68 0 0 Z " fill="#94B8C5" transform="translate(550,498)"/>
<path d="M0 0 C0.33 0.99 0.66 1.98 1 3 C0.1028125 3.1546875 0.1028125 3.1546875 -0.8125 3.3125 C-3.28243264 4.08876455 -4.32251235 5.07088921 -6 7 C-6.66 5.68 -7.32 4.36 -8 3 C-6.68 3 -5.36 3 -4 3 C-4 2.34 -4 1.68 -4 1 C-2 0 -2 0 0 0 Z " fill="#8DB3B4" transform="translate(1023,496)"/>
<path d="M0 0 C0.33 0 0.66 0 1 0 C1 5.28 1 10.56 1 16 C0.01 16.33 -0.98 16.66 -2 17 C-1.34 11.39 -0.68 5.78 0 0 Z " fill="#3D5D77" transform="translate(562,474)"/>
<path d="M0 0 C0.66 0.33 1.32 0.66 2 1 C1.67 2.32 1.34 3.64 1 5 C1.66 5 2.32 5 3 5 C2.67 5.99 2.34 6.98 2 8 C0.2925002 6.71937515 -1.37373596 5.38232443 -3 4 C-3 3.34 -3 2.68 -3 2 C-2.01 1.34 -1.02 0.68 0 0 Z " fill="#9DBECF" transform="translate(654,451)"/>
<path d="M0 0 C1.9453125 0.2421875 1.9453125 0.2421875 4.125 0.875 C4.84945313 1.07867187 5.57390625 1.28234375 6.3203125 1.4921875 C6.87460937 1.65976562 7.42890625 1.82734375 8 2 C7.67 2.99 7.34 3.98 7 5 C4.03 4.01 1.06 3.02 -2 2 C-1.34 1.34 -0.68 0.68 0 0 Z " fill="#173955" transform="translate(404,449)"/>
<path d="M0 0 C0.66 0.66 1.32 1.32 2 2 C-1 4 -1 4 -4.625 3.75 C-6.295625 3.37875 -6.295625 3.37875 -8 3 C-8.33 2.34 -8.66 1.68 -9 1 C-2.25 0.875 -2.25 0.875 0 2 C0 1.34 0 0.68 0 0 Z " fill="#9EC1CE" transform="translate(822,425)"/>
<path d="M0 0 C0.33 0.66 0.66 1.32 1 2 C0.22265625 3.9453125 0.22265625 3.9453125 -0.9375 6.125 C-1.31777344 6.84945312 -1.69804688 7.57390625 -2.08984375 8.3203125 C-2.39019531 8.87460938 -2.69054687 9.42890625 -3 10 C-3.33 10 -3.66 10 -4 10 C-4.25 7.25 -4.25 7.25 -4 4 C-2 1.625 -2 1.625 0 0 Z " fill="#99C7B7" transform="translate(678,238)"/>
<path d="M0 0 C2.15377564 2.62198774 3.40072174 4.64404172 4 8 C3.01 8.33 2.02 8.66 1 9 C-0.4783226 6.04335481 -0.06032783 3.25770263 0 0 Z " fill="#10314D" transform="translate(848,216)"/>
<path d="M0 0 C0.99 0.33 1.98 0.66 3 1 C1.02 3.31 -0.96 5.62 -3 8 C-3.33 7.01 -3.66 6.02 -4 5 C-2.0625 2.3125 -2.0625 2.3125 0 0 Z " fill="#91B1C8" transform="translate(651,196)"/>
<path d="M0 0 C0.99 0.33 1.98 0.66 3 1 C1.86695008 4.39914975 0.87481525 5.05254451 -2 7 C-2.66 6.67 -3.32 6.34 -4 6 C-2.68 4.02 -1.36 2.04 0 0 Z " fill="#102E4C" transform="translate(659,192)"/>
<path d="M0 0 C0.53625 0.28875 1.0725 0.5775 1.625 0.875 C4.35280484 2.16711808 7.12612718 3.08558592 10 4 C6.25 6 6.25 6 4 6 C3.67 5.34 3.34 4.68 3 4 C2.01 3.67 1.02 3.34 0 3 C0 2.01 0 1.02 0 0 Z " fill="#193653" transform="translate(774,504)"/>
<path d="M0 0 C3.29714793 0.32971479 4.6226839 0.6226839 7 3 C3.625 3.625 3.625 3.625 0 4 C-0.66 3.34 -1.32 2.68 -2 2 C-1.34 1.34 -0.68 0.68 0 0 Z " fill="#88ADB1" transform="translate(1024,505)"/>
<path d="M0 0 C0.639375 0.495 1.27875 0.99 1.9375 1.5 C3.70974339 3.09802862 3.70974339 3.09802862 5 3 C5 4.98 5 6.96 5 9 C2.33264727 6.51047079 0.44253657 4.36591866 -1 1 C-0.67 0.67 -0.34 0.34 0 0 Z " fill="#133149" transform="translate(919,502)"/>
<path d="M0 0 C0.99 0 1.98 0 3 0 C3 0.66 3 1.32 3 2 C4.65 2.33 6.3 2.66 8 3 C7.34 4.32 6.68 5.64 6 7 C4.02 4.69 2.04 2.38 0 0 Z " fill="#1C3A56" transform="translate(691,334)"/>
<path d="M0 0 C0.99 0.33 1.98 0.66 3 1 C1.68 3.31 0.36 5.62 -1 8 C-1.66 7.67 -2.32 7.34 -3 7 C-2.38722388 4.03824877 -1.74627478 2.61941217 0 0 Z " fill="#97BBCC" transform="translate(840,293)"/>
<path d="M0 0 C3.79303725 1.00193437 6.71536341 1.81024227 10 4 C9.67 4.66 9.34 5.32 9 6 C5.9168649 4.80100302 2.93720508 3.52299523 0 2 C0 1.34 0 0.68 0 0 Z " fill="#418A7C" transform="translate(786,224)"/>
<path d="M0 0 C-1 2 -2 4 -3 6 C-3.66 6 -4.32 6 -5 6 C-5 5.34 -5 4.68 -5 4 C-5.66 3.67 -6.32 3.34 -7 3 C-2.25 0 -2.25 0 0 0 Z " fill="#13314E" transform="translate(756,185)"/>
<path d="M0 0 C3.3 0 6.6 0 10 0 C7.41073669 2.58926331 5.97294721 2.37398043 2.375 2.625 C1.37210938 2.69976563 0.36921875 2.77453125 -0.6640625 2.8515625 C-1.82035156 2.92503906 -1.82035156 2.92503906 -3 3 C-2.01 2.67 -1.02 2.34 0 2 C0 1.34 0 0.68 0 0 Z " fill="#12344B" transform="translate(800,530)"/>
<path d="M0 0 C0.99 0.99 1.98 1.98 3 3 C1.02 3.99 -0.96 4.98 -3 6 C-3 4.68 -3 3.36 -3 2 C-2.01 2 -1.02 2 0 2 C0 1.34 0 0.68 0 0 Z " fill="#93B6C7" transform="translate(811,501)"/>
<path d="M0 0 C1.32 0 2.64 0 4 0 C4.625 2.875 4.625 2.875 5 6 C4.34 6.66 3.68 7.32 3 8 C0 2.25 0 2.25 0 0 Z " fill="#8FB6B6" transform="translate(1067,498)"/>
<path d="M0 0 C1.32 1.32 2.64 2.64 4 4 C3.01 4 2.02 4 1 4 C1 4.99 1 5.98 1 7 C-0.32 6.34 -1.64 5.68 -3 5 C-2.01 4.67 -1.02 4.34 0 4 C0 2.68 0 1.36 0 0 Z " fill="#102E52" transform="translate(660,463)"/>
<path d="M0 0 C3.82946843 1.45255699 5.12050295 3.42895561 7 7 C6.34 7.66 5.68 8.32 5 9 C2 4.25 2 4.25 2 2 C1.34 2 0.68 2 0 2 C0 1.34 0 0.68 0 0 Z " fill="#8FB2C2" transform="translate(414,456)"/>
<path d="M0 0 C0 0.66 0 1.32 0 2 C-0.66 2 -1.32 2 -2 2 C-2 2.66 -2 3.32 -2 4 C-3.65 4 -5.3 4 -7 4 C-7.33 3.01 -7.66 2.02 -8 1 C-2.25 0 -2.25 0 0 0 Z " fill="#022242" transform="translate(528,443)"/>
<path d="M0 0 C1.98 0.495 1.98 0.495 4 1 C3.67 2.65 3.34 4.3 3 6 C1.68 5.01 0.36 4.02 -1 3 C-0.67 2.01 -0.34 1.02 0 0 Z " fill="#9CBFD0" transform="translate(621,424)"/>
<path d="M0 0 C3.26954202 0.56371414 4.82575883 1.49962266 7 4 C6.67 4.66 6.34 5.32 6 6 C4.125 5.8125 4.125 5.8125 2 5 C0.75 2.4375 0.75 2.4375 0 0 Z " fill="#9FC1CF" transform="translate(726,370)"/>
<path d="M0 0 C0.33 0.66 0.66 1.32 1 2 C-1.20927127 5.48832306 -3.08597051 6.73058503 -7 8 C-6.02133662 6.85373678 -5.04205413 5.70800212 -4.0625 4.5625 C-3.51722656 3.92441406 -2.97195313 3.28632813 -2.41015625 2.62890625 C-1.63204305 1.73008851 -0.84063472 0.84063472 0 0 Z " fill="#90B2C8" transform="translate(809,323)"/>
<path d="M0 0 C2.86697492 1.28519565 4.97607712 2.57129254 7 5 C7 5.66 7 6.32 7 7 C5 7 5 7 3.5625 5.625 C3.046875 5.08875 2.53125 4.5525 2 4 C1.01 3.34 0.02 2.68 -1 2 C-0.67 1.34 -0.34 0.68 0 0 Z " fill="#A4C4D8" transform="translate(661,308)"/>
<path d="M0 0 C0.33 0.99 0.66 1.98 1 3 C0.01 3.33 -0.98 3.66 -2 4 C-2.33 4.99 -2.66 5.98 -3 7 C-5.0625 7.6875 -5.0625 7.6875 -7 8 C-6.02133662 6.85373678 -5.04205413 5.70800212 -4.0625 4.5625 C-3.51722656 3.92441406 -2.97195313 3.28632813 -2.41015625 2.62890625 C-1.63204305 1.73008851 -0.84063472 0.84063472 0 0 Z " fill="#8AC6BF" transform="translate(795,288)"/>
<path d="M0 0 C1.32 0.66 2.64 1.32 4 2 C3.67 3.32 3.34 4.64 3 6 C1.33333333 6 -0.33333333 6 -2 6 C-1.34 5.67 -0.68 5.34 0 5 C0 3.35 0 1.7 0 0 Z " fill="#A5C8CD" transform="translate(818,274)"/>
<path d="M0 0 C1.32 0.33 2.64 0.66 4 1 C4.33 2.32 4.66 3.64 5 5 C4.01 5.33 3.02 5.66 2 6 C1.34 5.67 0.68 5.34 0 5 C0 3.35 0 1.7 0 0 Z " fill="#A7CCD3" transform="translate(741,232)"/>
<path d="M0 0 C2.64 0.33 5.28 0.66 8 1 C7.01 1.33 6.02 1.66 5 2 C5 2.66 5 3.32 5 4 C3.35 3.67 1.7 3.34 0 3 C0 2.01 0 1.02 0 0 Z " fill="#E6F1F5" transform="translate(927,586)"/>
<path d="M0 0 C2.64 0.33 5.28 0.66 8 1 C7.01 1.33 6.02 1.66 5 2 C5 2.66 5 3.32 5 4 C3.35 3.67 1.7 3.34 0 3 C0 2.01 0 1.02 0 0 Z " fill="#E6F2F6" transform="translate(856,586)"/>
<path d="M0 0 C2.64 0.33 5.28 0.66 8 1 C7.01 1.33 6.02 1.66 5 2 C5 2.66 5 3.32 5 4 C3.35 3.67 1.7 3.34 0 3 C0 2.01 0 1.02 0 0 Z " fill="#E7F3F7" transform="translate(644,586)"/>
<path d="M0 0 C1.32 1.65 2.64 3.3 4 5 C3.01 6.485 3.01 6.485 2 8 C0.4375 6.8125 0.4375 6.8125 -1 5 C-0.6875 2.3125 -0.6875 2.3125 0 0 Z " fill="#143152" transform="translate(672,498)"/>
<path d="M0 0 C1.32 1.32 2.64 2.64 4 4 C3.34 5.32 2.68 6.64 2 8 C1.67 7.01 1.34 6.02 1 5 C0.34 4.67 -0.32 4.34 -1 4 C-0.67 2.68 -0.34 1.36 0 0 Z " fill="#153453" transform="translate(502,495)"/>
<path d="M0 0 C0.99 0.33 1.98 0.66 3 1 C3 2.66666667 3 4.33333333 3 6 C2.01 6 1.02 6 0 6 C-0.66 4.35 -1.32 2.7 -2 1 C-1.34 0.67 -0.68 0.34 0 0 Z " fill="#9CBEC9" transform="translate(942,493)"/>
<path d="M0 0 C0.33 0 0.66 0 1 0 C1.66 2.97 2.32 5.94 3 9 C2.01 9 1.02 9 0 9 C-1.125 2.25 -1.125 2.25 0 0 Z " fill="#123050" transform="translate(498,484)"/>
<path d="M0 0 C0.66 0.33 1.32 0.66 2 1 C1.34 1.66 0.68 2.32 0 3 C0 3.99 0 4.98 0 6 C-0.99 6 -1.98 6 -3 6 C-2.42655063 3.13275314 -2.1385485 2.1385485 0 0 Z " fill="#8DB0C0" transform="translate(752,376)"/>
<path d="M0 0 C0.33 1.32 0.66 2.64 1 4 C-0.98 5.32 -2.96 6.64 -5 8 C-5.66 7.67 -6.32 7.34 -7 7 C-4.69 4.69 -2.38 2.38 0 0 Z " fill="#7EA0B2" transform="translate(769,360)"/>
<path d="M0 0 C0.66 0.33 1.32 0.66 2 1 C2 2.98 2 4.96 2 7 C0 5.6875 0 5.6875 -2 4 C-2 3.01 -2 2.02 -2 1 C-1.34 0.67 -0.68 0.34 0 0 Z " fill="#11314C" transform="translate(708,345)"/>
<path d="M0 0 C2.97 1.98 2.97 1.98 6 4 C5.67 4.66 5.34 5.32 5 6 C3.68 6 2.36 6 1 6 C0.67 4.02 0.34 2.04 0 0 Z " fill="#87ABB9" transform="translate(668,313)"/>
<path d="M0 0 C1.41377341 2.63904371 2.37240135 5.07120629 3 8 C3.66 8 4.32 8 5 8 C4.67 8.66 4.34 9.32 4 10 C2.68 9.34 1.36 8.68 0 8 C0 5.36 0 2.72 0 0 Z " fill="#9EC8BC" transform="translate(674,264)"/>
<path d="M0 0 C-0.99 1.485 -0.99 1.485 -2 3 C-5.625 3.1875 -5.625 3.1875 -9 3 C-9 2.34 -9 1.68 -9 1 C-6.04335481 -0.4783226 -3.25770263 -0.06032783 0 0 Z " fill="#9EBFCF" transform="translate(727,177)"/>
<path d="M0 0 C2.31 0.33 4.62 0.66 7 1 C4.64046906 3.35953094 3.22104383 3.49141413 0 4 C0 2.68 0 1.36 0 0 Z " fill="#95BAB7" transform="translate(1019,532)"/>
<path d="M0 0 C0.66 0.33 1.32 0.66 2 1 C1.67 1.99 1.34 2.98 1 4 C0.01 4.33 -0.98 4.66 -2 5 C-2 4.34 -2 3.68 -2 3 C-3.65 3 -5.3 3 -7 3 C-4.66785852 1.79371992 -2.50357861 0.8345262 0 0 Z " fill="#7396A2" transform="translate(1043,529)"/>
<path d="M0 0 C2 2 2 2 2.125 4.625 C2.08375 5.40875 2.0425 6.1925 2 7 C1.34 7 0.68 7 0 7 C-0.66 5.35 -1.32 3.7 -2 2 C-1.34 1.34 -0.68 0.68 0 0 Z " fill="#8FB5BA" transform="translate(837,512)"/>
<path d="M0 0 C0.66 0.99 1.32 1.98 2 3 C1.125 5.6875 1.125 5.6875 0 8 C-0.66 7.34 -1.32 6.68 -2 6 C-2 4.68 -2 3.36 -2 2 C-1.34 2 -0.68 2 0 2 C0 1.34 0 0.68 0 0 Z " fill="#142F47" transform="translate(1060,510)"/>
<path d="M0 0 C2 1 2 1 4 4 C2.35 4.33 0.7 4.66 -1 5 C-1 1 -1 1 0 0 Z " fill="#042042" transform="translate(546,507)"/>
<path d="M0 0 C0.66 0.33 1.32 0.66 2 1 C1.01 2.485 1.01 2.485 0 4 C-3.625 4.1875 -3.625 4.1875 -7 4 C-4.66603411 2.44402274 -2.57343171 1.07918104 0 0 Z " fill="#92B6BB" transform="translate(1035,505)"/>
<path d="M0 0 C0.66 0.33 1.32 0.66 2 1 C0.84826645 3.46800047 -0.04783565 5.04783565 -2 7 C-2.6875 5.1875 -2.6875 5.1875 -3 3 C-1.5625 1.25 -1.5625 1.25 0 0 Z " fill="#113049" transform="translate(839,505)"/>
<path d="M0 0 C0 0.99 0 1.98 0 3 C-2.97 2.505 -2.97 2.505 -6 2 C-6 1.34 -6 0.68 -6 0 C-3 -1 -3 -1 0 0 Z " fill="#92B3C6" transform="translate(522,506)"/>
<path d="M0 0 C1.98 1.65 3.96 3.3 6 5 C5.67 5.66 5.34 6.32 5 7 C4.01 6.67 3.02 6.34 2 6 C0.8125 2.9375 0.8125 2.9375 0 0 Z " fill="#8AABBC" transform="translate(655,488)"/>
<path d="M0 0 C0.66 0 1.32 0 2 0 C2 1.65 2 3.3 2 5 C0.02 5 -1.96 5 -4 5 C-2.71937515 3.2925002 -1.38232443 1.62626404 0 0 Z " fill="#89AAB6" transform="translate(952,483)"/>
<path d="M0 0 C0.99 0 1.98 0 3 0 C4 3 4 3 4 5 C2.68 4.67 1.36 4.34 0 4 C0 2.68 0 1.36 0 0 Z " fill="#A1C3CE" transform="translate(667,465)"/>
<path d="M0 0 C0.66 0.66 1.32 1.32 2 2 C1.625 4.125 1.625 4.125 1 6 C1 5.34 1 4.68 1 4 C-0.65 4 -2.3 4 -4 4 C-3.67 3.01 -3.34 2.02 -3 1 C-2.01 0.67 -1.02 0.34 0 0 Z " fill="#1B3B60" transform="translate(446,462)"/>
<path d="M0 0 C0.99 0 1.98 0 3 0 C3 1.65 3 3.3 3 5 C2.01 5.33 1.02 5.66 0 6 C-0.38218767 4.34385343 -0.71395102 2.67542976 -1 1 C-0.67 0.67 -0.34 0.34 0 0 Z " fill="#9EC0CE" transform="translate(580,449)"/>
<path d="M0 0 C0 1.65 0 3.3 0 5 C-1.65 5 -3.3 5 -5 5 C-4.625 3.0625 -4.625 3.0625 -4 1 C-2 0 -2 0 0 0 Z " fill="#A4C6CE" transform="translate(647,441)"/>
<path d="M0 0 C0.66 0.33 1.32 0.66 2 1 C2 3 2 3 0.5 4.625 C0.005 5.07875 -0.49 5.5325 -1 6 C-1.66 5.67 -2.32 5.34 -3 5 C-2.67 4.34 -2.34 3.68 -2 3 C-2.66 2.67 -3.32 2.34 -4 2 C-2.125 0.9375 -2.125 0.9375 0 0 Z " fill="#123451" transform="translate(502,431)"/>
<path d="M0 0 C0.66 0 1.32 0 2 0 C1.60196439 2.88575819 1.20990931 3.82189513 -1.0625 5.75 C-1.701875 6.1625 -2.34125 6.575 -3 7 C-3.66 6.67 -4.32 6.34 -5 6 C-4.360625 5.7525 -3.72125 5.505 -3.0625 5.25 C-0.81258459 4.18437567 -0.81258459 4.18437567 -0.25 1.875 C-0.1675 1.25625 -0.085 0.6375 0 0 Z " fill="#A3C6D7" transform="translate(498,429)"/>
<path d="M0 0 C3.875 1.75 3.875 1.75 5 4 C4.01 5.485 4.01 5.485 3 7 C2.34 6.67 1.68 6.34 1 6 C1 5.34 1 4.68 1 4 C0.68521554 2.66216607 0.35412344 1.32796291 0 0 Z " fill="#173554" transform="translate(721,336)"/>
<path d="M0 0 C2.125 0.375 2.125 0.375 4 1 C3.67 1.99 3.34 2.98 3 4 C2.67 3.67 2.34 3.34 2 3 C1.34 3.66 0.68 4.32 0 5 C-0.66 4.01 -1.32 3.02 -2 2 C-1.34 1.34 -0.68 0.68 0 0 Z " fill="#94B5BF" transform="translate(705,316)"/>
<path d="M0 0 C0.66 0 1.32 0 2 0 C0.60667426 3.36720387 -0.9789286 4.9859524 -4 7 C-4 5.68 -4 4.36 -4 3 C-2.68 2.67 -1.36 2.34 0 2 C0 1.34 0 0.68 0 0 Z " fill="#8DB2C2" transform="translate(794,306)"/>
<path d="M0 0 C0.99 0.33 1.98 0.66 3 1 C4.1875 4.0625 4.1875 4.0625 5 7 C4.01 7.33 3.02 7.66 2 8 C0.74335022 5.09399739 0 3.20395416 0 0 Z " fill="#A2C5CE" transform="translate(851,276)"/>
</svg>
